<?xml version="1.0" encoding="UTF-8"?>
<!DOCTYPE svg PUBLIC "-//W3C//DTD SVG 1.1//EN" "http://www.w3.org/Graphics/SVG/1.1/DTD/svg11.dtd">
<!-- Creator: CorelDRAW X7 -->
<svg xmlns="http://www.w3.org/2000/svg" xml:space="preserve" width="43.237in" height="43.2677in" version="1.1" style="shape-rendering:geometricPrecision; text-rendering:geometricPrecision; image-rendering:optimizeQuality; fill-rule:evenodd; clip-rule:evenodd"
viewBox="0 0 43307 43338"
 xmlns:xlink="http://www.w3.org/1999/xlink">
 <defs>
  <style type="text/css">
   <![CDATA[
    .fil0 {fill:white}
   ]]>
  </style>
 </defs>
 <g id="Layer_x0020_1">
  <metadata id="CorelCorpID_0Corel-Layer"/>
  <g id="_1493153990752">
   <path class="fil0" d="M31285 3843c-27,1 -54,13 -75,33 -7387,7386 -14767,14766 -22140,22139 -13,14 -20,32 -20,51 0,19 7,37 20,51l7809 7984c44,44 96,73 157,86 1039,223 2078,435 3116,638 10,2 18,7 24,15 18,22 17,44 -4,65l-2284 2286c-57,56 -126,99 -201,124l-17616 5913c-63,21 -84,0 -63,-64l5705 -17530c35,-104 91,-192 164,-263l25347 -25349c32,-30 81,-29 110,1l11789 11815c38,39 38,78 0,117l-8429 8428c-8,7 -18,11 -28,11 -19,0 -36,-15 -39,-34l-412 -3220c-8,-67 14,-132 61,-179l5034 -5033c19,-19 20,-50 0,-70 0,0 0,0 0,0 -2662,-2662 -5328,-5327 -7998,-7993 -14,-15 -23,-22 -27,-22zm-23692 24932c-6,-5 -13,-8 -21,-8 -13,0 -24,8 -28,20l-2114 6522c-1,3 -1,6 -1,9 0,8 2,15 8,21l2413 2414c5,6 13,9 20,9 4,0 7,-1 10,-2l6456 -2183c12,-4 20,-15 20,-28 0,-7 -3,-15 -9,-21l-6754 -6753z"/>
   <path class="fil0" d="M43307 29088l0 2837c-156,403 -563,425 -933,458 -741,66 -1514,130 -2319,193 -77,6 -142,58 -164,132 -101,337 -194,636 -277,900 -219,690 -587,1354 -914,2012 -10,19 -15,40 -15,62 0,30 10,59 28,83 533,716 1150,1391 1679,2058 204,258 337,534 114,801 -471,564 -1044,1156 -1720,1777 -421,387 -765,261 -1155,-77 -622,-542 -1234,-1056 -1835,-1542 -80,-64 -187,-73 -275,-26 -859,457 -1616,829 -2590,1079 -105,27 -207,66 -305,117 -46,25 -71,64 -76,116 -61,734 -120,1447 -176,2139 -16,207 -47,429 -92,664 -45,234 -178,390 -399,467l-2839 0c-257,-111 -403,-351 -436,-720 -73,-822 -145,-1669 -213,-2543 -7,-83 -56,-137 -147,-161 -1042,-280 -2017,-688 -2925,-1225 -17,-10 -36,-15 -55,-15 -26,0 -51,10 -71,27 -529,464 -1150,991 -1861,1579 -276,227 -649,532 -997,245 -534,-438 -1076,-955 -1628,-1552 -169,-184 -502,-573 -375,-820 111,-214 250,-419 419,-614 493,-570 973,-1141 1439,-1712 62,-78 71,-183 24,-268 -376,-697 -742,-1427 -964,-2177 -72,-245 -148,-482 -229,-712 -17,-51 -62,-86 -116,-91 -705,-58 -1427,-118 -2166,-179 -344,-28 -959,-48 -1079,-435 -53,-169 -79,-369 -80,-599 -2,-591 -2,-1147 -1,-1667 2,-626 54,-992 780,-1059 834,-76 1656,-150 2465,-220 131,-11 214,-83 249,-216 249,-921 625,-1832 1129,-2731 60,-108 52,-209 -25,-302 -559,-680 -1120,-1354 -1683,-2020 -74,-87 -127,-196 -161,-328 -63,-245 126,-504 279,-673 343,-380 708,-759 1097,-1136 395,-384 870,-935 1419,-475 631,528 1291,1082 1982,1661 103,87 213,98 330,33 902,-503 1811,-878 2725,-1126 219,-59 216,-187 233,-378 60,-671 118,-1338 173,-2003 18,-213 51,-424 97,-634 97,-432 488,-475 853,-475 574,0 1155,-2 1743,-4 623,-2 995,54 1063,767 80,847 152,1697 216,2552 2,26 12,48 31,67 46,46 101,78 165,95 1030,277 1889,700 2818,1161 30,15 63,22 96,22 51,0 100,-17 139,-50 669,-560 1340,-1117 2011,-1671 321,-265 635,-260 942,14 496,442 1018,965 1566,1571 163,179 383,439 278,688 -74,177 -177,343 -310,500 -513,611 -1030,1230 -1552,1859 -47,56 -57,136 -24,204 464,914 907,1812 1149,2805 29,119 100,188 214,205 887,130 1845,141 2728,279 260,41 430,176 509,407zm-7211 1412c0,-3105 -2519,-5624 -5624,-5624 -3106,0 -5624,2519 -5624,5624 0,3106 2518,5624 5624,5624 3105,0 5624,-2518 5624,-5624l0 0z"/>
  </g>
 </g>
</svg>
