<?xml version="1.0" encoding="UTF-8"?>
<!DOCTYPE svg PUBLIC "-//W3C//DTD SVG 1.1//EN" "http://www.w3.org/Graphics/SVG/1.1/DTD/svg11.dtd">
<!-- Creator: CorelDRAW X8 -->
<svg xmlns="http://www.w3.org/2000/svg" xml:space="preserve" width="1.37119in" height="1.16065in" version="1.1" style="shape-rendering:geometricPrecision; text-rendering:geometricPrecision; image-rendering:optimizeQuality; fill-rule:evenodd; clip-rule:evenodd"
viewBox="0 0 335 283"
 xmlns:xlink="http://www.w3.org/1999/xlink">
 <defs>
  <style type="text/css">
   <![CDATA[
    .str0 {stroke:black;stroke-width:0.732178}
    .fil0 {fill:none}
    .fil1 {fill:none;fill-rule:nonzero}
    .fil43 {fill:black}
    .fil2 {fill:black}
    .fil46 {fill:#070F10}
    .fil48 {fill:#E6E6E6}
    .fil45 {fill:white}
    .fil44 {fill:white;fill-rule:nonzero}
    .fil10 {fill:url(#id6)}
    .fil126 {fill:url(#id7)}
    .fil67 {fill:url(#id8)}
    .fil66 {fill:url(#id9)}
    .fil58 {fill:url(#id10)}
    .fil123 {fill:url(#id11)}
    .fil98 {fill:url(#id12)}
    .fil4 {fill:url(#id13)}
    .fil28 {fill:url(#id14)}
    .fil120 {fill:url(#id15)}
    .fil20 {fill:url(#id16)}
    .fil35 {fill:url(#id17)}
    .fil69 {fill:url(#id18)}
    .fil40 {fill:url(#id19)}
    .fil53 {fill:url(#id20)}
    .fil73 {fill:url(#id21)}
    .fil103 {fill:url(#id22)}
    .fil112 {fill:url(#id23)}
    .fil109 {fill:url(#id24)}
    .fil31 {fill:url(#id25)}
    .fil72 {fill:url(#id26)}
    .fil116 {fill:url(#id27)}
    .fil14 {fill:url(#id28)}
    .fil121 {fill:url(#id29)}
    .fil12 {fill:url(#id30)}
    .fil21 {fill:url(#id31)}
    .fil38 {fill:url(#id32)}
    .fil26 {fill:url(#id33)}
    .fil62 {fill:url(#id34)}
    .fil16 {fill:url(#id35)}
    .fil80 {fill:url(#id36)}
    .fil122 {fill:url(#id37)}
    .fil7 {fill:url(#id38)}
    .fil82 {fill:url(#id39)}
    .fil119 {fill:url(#id40)}
    .fil32 {fill:url(#id41)}
    .fil91 {fill:url(#id42)}
    .fil92 {fill:url(#id43)}
    .fil78 {fill:url(#id44)}
    .fil6 {fill:url(#id45)}
    .fil113 {fill:url(#id46)}
    .fil110 {fill:url(#id47)}
    .fil61 {fill:url(#id48)}
    .fil111 {fill:url(#id49)}
    .fil77 {fill:url(#id50)}
    .fil25 {fill:url(#id51)}
    .fil52 {fill:url(#id52)}
    .fil87 {fill:url(#id53)}
    .fil76 {fill:url(#id54)}
    .fil85 {fill:url(#id55)}
    .fil96 {fill:url(#id56)}
    .fil70 {fill:url(#id57)}
    .fil101 {fill:url(#id58)}
    .fil125 {fill:url(#id59)}
    .fil59 {fill:url(#id60)}
    .fil118 {fill:url(#id61)}
    .fil13 {fill:url(#id62)}
    .fil3 {fill:url(#id63)}
    .fil99 {fill:url(#id64)}
    .fil24 {fill:url(#id65)}
    .fil19 {fill:url(#id66)}
    .fil106 {fill:url(#id67)}
    .fil94 {fill:url(#id68)}
    .fil23 {fill:url(#id69)}
    .fil30 {fill:url(#id70)}
    .fil11 {fill:url(#id71)}
    .fil29 {fill:url(#id72)}
    .fil54 {fill:url(#id73)}
    .fil9 {fill:url(#id74)}
    .fil75 {fill:url(#id75)}
    .fil88 {fill:url(#id76)}
    .fil90 {fill:url(#id77)}
    .fil115 {fill:url(#id78)}
    .fil50 {fill:url(#id79)}
    .fil89 {fill:url(#id80)}
    .fil97 {fill:url(#id81)}
    .fil83 {fill:url(#id82)}
    .fil41 {fill:url(#id83)}
    .fil15 {fill:url(#id84)}
    .fil104 {fill:url(#id85)}
    .fil34 {fill:url(#id86)}
    .fil71 {fill:url(#id87)}
    .fil64 {fill:url(#id88)}
    .fil63 {fill:url(#id89)}
    .fil128 {fill:url(#id90)}
    .fil100 {fill:url(#id91)}
    .fil8 {fill:url(#id92)}
    .fil49 {fill:url(#id93)}
    .fil107 {fill:url(#id94)}
    .fil60 {fill:url(#id95)}
    .fil93 {fill:url(#id96)}
    .fil68 {fill:url(#id97)}
    .fil108 {fill:url(#id98)}
    .fil86 {fill:url(#id99)}
    .fil37 {fill:url(#id100)}
    .fil51 {fill:url(#id101)}
    .fil22 {fill:url(#id102)}
    .fil124 {fill:url(#id103)}
    .fil81 {fill:url(#id104)}
    .fil55 {fill:url(#id105)}
    .fil18 {fill:url(#id106)}
    .fil42 {fill:url(#id107)}
    .fil102 {fill:url(#id108)}
    .fil84 {fill:url(#id109)}
    .fil5 {fill:url(#id110)}
    .fil105 {fill:url(#id111)}
    .fil95 {fill:url(#id112)}
    .fil56 {fill:url(#id113)}
    .fil57 {fill:url(#id114)}
    .fil127 {fill:url(#id115)}
    .fil36 {fill:url(#id116)}
    .fil114 {fill:url(#id117)}
    .fil65 {fill:url(#id118)}
    .fil27 {fill:url(#id119)}
    .fil117 {fill:url(#id120)}
    .fil33 {fill:url(#id121)}
    .fil17 {fill:url(#id122)}
    .fil74 {fill:url(#id123)}
    .fil39 {fill:url(#id124)}
    .fil79 {fill:url(#id125)}
    .fil47 {fill:url(#id126)}
   ]]>
  </style>
    <clipPath id="id0">
     <path d="M71 115c1,1 2,1 3,2 2,0 3,1 4,1 2,1 5,2 7,3 3,1 5,2 7,2 3,1 6,2 9,2 0,0 0,0 1,-1l2 -5c0,-1 0,-1 0,-1 1,-1 1,-1 1,-1 2,-4 1,-5 2,-8 0,0 0,-1 1,-1 0,-1 0,-1 0,-1 0,-1 1,-2 1,-3 0,1 1,1 1,3 0,1 0,2 0,3 0,0 1,1 1,2 0,0 0,1 0,1 0,1 0,2 1,6 0,2 0,2 1,4 0,2 0,5 0,7 1,4 1,3 1,8 0,1 0,2 0,4 1,0 1,1 1,1l0 2c0,2 0,3 0,4 0,1 0,2 0,3 0,1 0,6 0,8 0,0 0,1 0,1 0,1 0,1 0,2 0,0 1,1 1,1 0,1 0,2 0,3 0,1 0,1 0,2 0,1 0,3 0,4 0,2 0,5 0,7 0,1 0,2 0,3 0,2 0,6 -1,9 -1,6 -2,8 -2,14 0,1 0,2 0,3l1 5c0,1 -1,3 -1,4 -1,1 -1,1 -1,2 0,1 0,1 0,2 -1,2 -2,6 -1,8 0,2 0,3 0,5 1,3 0,4 0,7 0,2 0,4 0,6 -1,1 -1,1 -1,2 0,0 0,1 0,1 0,1 0,1 0,2l0 0c0,0 2,1 7,2 6,1 22,3 28,4 6,0 19,1 24,1 6,0 24,-1 33,-2 9,-2 20,-3 23,-5 0,-1 0,0 0,-4 -1,-2 -1,-4 -1,-6 -1,-2 -1,-9 -1,-10 0,-1 0,-3 0,-4 0,-2 0,-2 0,-4 0,-1 0,-2 0,-2l0 -4c0,-7 -1,-13 -3,-19 -2,-5 0,-6 0,-11 0,-1 0,-2 0,-3 -1,-3 -1,-4 -1,-7 0,-3 0,-1 0,-3 0,-3 -1,-2 0,-4 0,-1 0,-1 0,-1 1,-5 1,-7 1,-12l0 -2c0,-1 0,-2 0,-3 0,-1 0,-4 0,-4 0,-2 0,-4 0,-6 0,-1 0,-2 0,-3 0,0 0,-1 1,-1 0,-4 0,-5 0,-8 0,-1 0,-2 0,-3 1,-2 2,-9 2,-12 0,-2 1,-3 1,-4 1,-1 1,-2 1,-3 0,-2 1,-2 1,-5 0,0 0,1 1,1 0,2 0,4 1,6 0,0 0,1 1,1 0,3 0,2 1,4 0,1 1,0 2,3 0,1 1,2 1,3 0,1 1,1 1,2 0,0 1,0 1,0 6,0 28,-8 28,-10 0,-1 -2,-6 -2,-7 0,-1 0,-1 -1,-3 0,-1 0,-1 0,-2l-1 -2c-1,-2 -2,-4 -3,-7 0,0 0,-1 0,-2 -1,-4 -3,-7 -4,-11 0,-4 -1,-8 -3,-12 -2,-5 -4,-10 -8,-14l-1 -1c-1,-1 -1,-2 -2,-3 -1,0 -1,0 -1,0l-2 -2c-2,-2 -5,-3 -8,-5l-13 -6c-1,0 -2,0 -2,0l-4 -2c-2,-1 -8,-4 -10,-6 -3,-2 -2,0 -5,-3 -4,-3 -2,-4 -9,-4 -3,0 -5,1 -8,1l-18 0c-3,0 -10,-1 -13,0 0,0 -1,0 -1,1 0,1 -1,1 -1,1 -1,1 -2,2 -3,3 -1,0 -2,0 -2,0 -1,1 -1,1 -2,2 0,0 0,0 0,0 0,0 0,0 0,0 -1,1 -7,4 -8,4 0,0 -1,0 -1,1 -2,1 -4,2 -6,3l-9 3c-4,2 -8,4 -11,6l-3 3c-5,4 -9,10 -11,17 -3,5 -4,10 -5,15 -1,3 -2,6 -3,9 0,0 0,0 0,1l-3 8c-1,1 -2,5 -2,6 0,1 0,2 -1,2l-1 4c0,1 -1,1 -1,2z"/>
    </clipPath>
    <clipPath id="id1">
     <path d="M71 115c1,1 2,1 3,2 2,0 3,1 4,1 2,1 5,2 7,3 3,1 5,2 7,2 3,1 6,2 9,2 0,0 0,0 1,-1l2 -5c0,-1 0,-1 0,-1 1,-1 1,-1 1,-1 2,-4 1,-5 2,-8 0,0 0,-1 1,-1 0,-1 0,-1 0,-1 0,-1 1,-2 1,-3 0,1 1,1 1,3 0,1 0,2 0,3 0,0 1,1 1,2 0,0 0,1 0,1 0,1 0,2 1,6 0,2 0,2 1,4 0,2 0,5 0,7 1,4 1,3 1,8 0,1 0,2 0,4 1,0 1,1 1,1l0 2c0,2 0,3 0,4 0,1 0,2 0,3 0,1 0,6 0,8 0,0 0,1 0,1 0,1 0,1 0,2 0,0 1,1 1,1 0,1 0,2 0,3 0,1 0,1 0,2 0,1 0,3 0,4 0,2 0,5 0,7 0,1 0,2 0,3 0,2 0,6 -1,9 -1,6 -2,8 -2,14 0,1 0,2 0,3l1 5c0,1 -1,3 -1,4 -1,1 -1,1 -1,2 0,1 0,1 0,2 -1,2 -2,6 -1,8 0,2 0,3 0,5 1,3 0,4 0,7 0,2 0,4 0,6 -1,1 -1,1 -1,2 0,0 0,1 0,1 0,1 0,1 0,2l0 0c0,0 2,1 7,2 6,1 22,3 28,4 6,0 19,1 24,1 6,0 24,-1 33,-2 9,-2 20,-3 23,-5 0,-1 0,0 0,-4 -1,-2 -1,-4 -1,-6 -1,-2 -1,-9 -1,-10 0,-1 0,-3 0,-4 0,-2 0,-2 0,-4 0,-1 0,-2 0,-2l0 -4c0,-7 -1,-13 -3,-19 -2,-5 0,-6 0,-11 0,-1 0,-2 0,-3 -1,-3 -1,-4 -1,-7 0,-3 0,-1 0,-3 0,-3 -1,-2 0,-4 0,-1 0,-1 0,-1 1,-5 1,-7 1,-12l0 -2c0,-1 0,-2 0,-3 0,-1 0,-4 0,-4 0,-2 0,-4 0,-6 0,-1 0,-2 0,-3 0,0 0,-1 1,-1 0,-4 0,-5 0,-8 0,-1 0,-2 0,-3 1,-2 2,-9 2,-12 0,-2 1,-3 1,-4 1,-1 1,-2 1,-3 0,-2 1,-2 1,-5 0,0 0,1 1,1 0,2 0,4 1,6 0,0 0,1 1,1 0,3 0,2 1,4 0,1 1,0 2,3 0,1 1,2 1,3 0,1 1,1 1,2 0,0 1,0 1,0 6,0 28,-8 28,-10 0,-1 -2,-6 -2,-7 0,-1 0,-1 -1,-3 0,-1 0,-1 0,-2l-1 -2c-1,-2 -2,-4 -3,-7 0,0 0,-1 0,-2 -1,-4 -3,-7 -4,-11 0,-4 -1,-8 -3,-12 -2,-5 -4,-10 -8,-14l-1 -1c-1,-1 -1,-2 -2,-3 -1,0 -1,0 -1,0l-2 -2c-2,-2 -5,-3 -8,-5l-13 -6c-1,0 -2,0 -2,0l-4 -2c-2,-1 -8,-4 -10,-6 -3,-2 -2,0 -5,-3 -4,-3 -2,-4 -9,-4 -3,0 -5,1 -8,1l-18 0c-3,0 -10,-1 -13,0 0,0 -1,0 -1,1 0,1 -1,1 -1,1 -1,1 -2,2 -3,3 -1,0 -2,0 -2,0 -1,1 -1,1 -2,2 0,0 0,0 0,0 0,0 0,0 0,0 -1,1 -7,4 -8,4 0,0 -1,0 -1,1 -2,1 -4,2 -6,3l-9 3c-4,2 -8,4 -11,6l-3 3c-5,4 -9,10 -11,17 -3,5 -4,10 -5,15 -1,3 -2,6 -3,9 0,0 0,0 0,1l-3 8c-1,1 -2,5 -2,6 0,1 0,2 -1,2l-1 4c0,1 -1,1 -1,2z"/>
    </clipPath>
    <clipPath id="id2">
     <path d="M71 115c1,1 2,1 3,2 2,0 3,1 4,1 2,1 5,2 7,3 3,1 5,2 7,2 3,1 6,2 9,2 0,0 0,0 1,-1l2 -5c0,-1 0,-1 0,-1 1,-1 1,-1 1,-1 2,-4 1,-5 2,-8 0,0 0,-1 1,-1 0,-1 0,-1 0,-1 0,-1 1,-2 1,-3 0,1 1,1 1,3 0,1 0,2 0,3 0,0 1,1 1,2 0,0 0,1 0,1 0,1 0,2 1,6 0,2 0,2 1,4 0,2 0,5 0,7 1,4 1,3 1,8 0,1 0,2 0,4 1,0 1,1 1,1l0 2c0,2 0,3 0,4 0,1 0,2 0,3 0,1 0,6 0,8 0,0 0,1 0,1 0,1 0,1 0,2 0,0 1,1 1,1 0,1 0,2 0,3 0,1 0,1 0,2 0,1 0,3 0,4 0,2 0,5 0,7 0,1 0,2 0,3 0,2 0,6 -1,9 -1,6 -2,8 -2,14 0,1 0,2 0,3l1 5c0,1 -1,3 -1,4 -1,1 -1,1 -1,2 0,1 0,1 0,2 -1,2 -2,6 -1,8 0,2 0,3 0,5 1,3 0,4 0,7 0,2 0,4 0,6 -1,1 -1,1 -1,2 0,0 0,1 0,1 0,1 0,1 0,2l0 0c0,0 2,1 7,2 6,1 22,3 28,4 6,0 19,1 24,1 6,0 24,-1 33,-2 9,-2 20,-3 23,-5 0,-1 0,0 0,-4 -1,-2 -1,-4 -1,-6 -1,-2 -1,-9 -1,-10 0,-1 0,-3 0,-4 0,-2 0,-2 0,-4 0,-1 0,-2 0,-2l0 -4c0,-7 -1,-13 -3,-19 -2,-5 0,-6 0,-11 0,-1 0,-2 0,-3 -1,-3 -1,-4 -1,-7 0,-3 0,-1 0,-3 0,-3 -1,-2 0,-4 0,-1 0,-1 0,-1 1,-5 1,-7 1,-12l0 -2c0,-1 0,-2 0,-3 0,-1 0,-4 0,-4 0,-2 0,-4 0,-6 0,-1 0,-2 0,-3 0,0 0,-1 1,-1 0,-4 0,-5 0,-8 0,-1 0,-2 0,-3 1,-2 2,-9 2,-12 0,-2 1,-3 1,-4 1,-1 1,-2 1,-3 0,-2 1,-2 1,-5 0,0 0,1 1,1 0,2 0,4 1,6 0,0 0,1 1,1 0,3 0,2 1,4 0,1 1,0 2,3 0,1 1,2 1,3 0,1 1,1 1,2 0,0 1,0 1,0 6,0 28,-8 28,-10 0,-1 -2,-6 -2,-7 0,-1 0,-1 -1,-3 0,-1 0,-1 0,-2l-1 -2c-1,-2 -2,-4 -3,-7 0,0 0,-1 0,-2 -1,-4 -3,-7 -4,-11 0,-4 -1,-8 -3,-12 -2,-5 -4,-10 -8,-14l-1 -1c-1,-1 -1,-2 -2,-3 -1,0 -1,0 -1,0l-2 -2c-2,-2 -5,-3 -8,-5l-13 -6c-1,0 -2,0 -2,0l-4 -2c-2,-1 -8,-4 -10,-6 -3,-2 -2,0 -5,-3 -4,-3 -2,-4 -9,-4 -3,0 -5,1 -8,1l-18 0c-3,0 -10,-1 -13,0 0,0 -1,0 -1,1 0,1 -1,1 -1,1 -1,1 -2,2 -3,3 -1,0 -2,0 -2,0 -1,1 -1,1 -2,2 0,0 0,0 0,0 0,0 0,0 0,0 -1,1 -7,4 -8,4 0,0 -1,0 -1,1 -2,1 -4,2 -6,3l-9 3c-4,2 -8,4 -11,6l-3 3c-5,4 -9,10 -11,17 -3,5 -4,10 -5,15 -1,3 -2,6 -3,9 0,0 0,0 0,1l-3 8c-1,1 -2,5 -2,6 0,1 0,2 -1,2l-1 4c0,1 -1,1 -1,2z"/>
    </clipPath>
    <clipPath id="id3">
     <path d="M102 47c0,1 1,4 1,5 0,2 -1,2 0,2 0,1 0,1 1,2 0,2 0,2 0,3 0,0 1,2 1,3 0,1 0,2 0,3 0,0 -1,1 -1,1 1,1 1,2 2,2 0,1 0,7 0,8 0,1 0,10 0,12 1,2 2,7 2,8 0,0 0,1 0,2 0,1 0,2 1,2 0,0 0,0 0,0 0,1 0,1 0,1 0,0 1,3 1,3 0,0 0,0 -1,0l0 0c0,1 -1,2 -1,3 0,0 0,0 0,1 -1,0 -1,1 -1,1 -1,3 0,4 -2,8 0,0 0,0 -1,1 0,0 0,0 0,1l-2 5c-1,1 -1,1 -1,1 -3,0 -6,-1 -9,-2 -2,0 -4,-1 -7,-2 -2,-1 -5,-2 -7,-3 -1,0 -2,-1 -4,-1 -1,-1 -2,-1 -3,-2 0,-1 1,-1 1,-2l1 -4c1,0 1,-1 1,-2 0,-1 1,-5 2,-6l3 -8c0,-1 0,-1 0,-1 1,-3 2,-6 3,-9 1,-5 2,-10 5,-15 2,-7 6,-13 11,-17l3 -3c1,0 1,0 1,-1z"/>
    </clipPath>
    <clipPath id="id4">
     <path d="M233 48c0,0 0,1 0,3 0,1 -1,3 0,4 0,0 0,0 0,0 0,0 0,1 -1,1 0,1 0,1 0,1 0,1 -1,4 -1,4 0,0 0,0 1,1 0,0 0,0 -1,1 0,0 0,1 0,1 0,0 0,3 -1,4 0,0 1,1 1,2 0,0 0,1 -1,1 0,1 0,3 0,4 0,1 0,4 0,5 0,0 -1,6 -1,9 -1,4 -2,7 -2,8 0,1 -1,2 -1,3 0,0 0,1 0,1 -1,1 -1,0 -1,1 0,0 0,1 0,2 0,0 1,1 1,1 0,0 0,1 1,1 0,2 0,4 1,6 0,0 0,1 1,1 0,3 0,2 1,4 0,1 1,0 2,3 0,1 1,2 1,3 0,1 1,1 1,2 0,0 1,0 1,0 6,0 28,-8 28,-10 0,-1 -2,-6 -2,-7 0,-1 0,-1 -1,-3 0,-1 0,-1 0,-2l-1 -2c-1,-2 -2,-4 -3,-7 0,0 0,-1 0,-2 -1,-4 -3,-7 -4,-11 0,-4 -1,-8 -3,-12 -2,-5 -4,-10 -8,-14l-1 -1c-1,-1 -1,-2 -2,-3 -1,0 -1,0 -1,0l-2 -2c-1,0 -1,-1 -2,-1z"/>
    </clipPath>
    <clipPath id="id5">
     <path d="M110 253c0,0 0,-1 0,-1l0 0c0,0 0,0 0,0l0 0c0,0 0,0 0,0l0 0 0 0 0 0c0,0 0,0 0,0l0 0c0,0 0,0 0,0l0 0 0 0 0 0 0 0c0,0 0,0 0,0l0 0 0 0 0 0 0 0 0 0 0 0 0 0 0 -1 0 0 0 0c0,0 0,0 0,0 0,0 0,-1 0,-1 0,-1 0,-1 1,-2 0,-2 0,-4 0,-6 0,-3 1,-4 0,-7 0,-2 0,-3 0,-5 -1,-2 0,-6 1,-8 0,-1 0,-1 0,-2 0,-1 0,-1 1,-2 0,-1 1,-3 1,-4l-1 -5c0,-1 0,-2 0,-3 0,-6 1,-8 2,-14 1,-3 1,-7 1,-9 0,-1 0,-2 0,-3 0,-2 0,-5 0,-7 0,-1 0,-3 0,-4 0,-1 0,-1 0,-2 0,-1 0,-2 0,-3 0,0 -1,-1 -1,-1 0,-1 0,-1 0,-2 0,0 0,-1 0,-1 0,-2 0,-7 0,-8 0,-1 0,-2 0,-3 0,-1 0,-2 0,-4l0 -2c0,0 0,-1 -1,-1 0,-2 0,-3 0,-4 0,-5 0,-4 -1,-8 0,-2 0,-5 0,-7 -1,-2 -1,-2 -1,-4 -1,-4 -1,-5 -1,-6 0,0 0,-1 0,-1 0,-1 -1,-2 -1,-2 0,-1 0,-2 0,-3 0,-2 -1,-2 -1,-3 0,1 -1,2 -1,3 0,0 0,0 0,1 -1,0 -1,1 -1,1 -1,3 0,4 -2,8 0,0 0,0 -1,1 0,0 0,0 0,1l-2 5c-1,1 -1,1 -1,1 -3,0 -6,-1 -9,-2 -2,0 -4,-1 -7,-2 -2,-1 -5,-2 -7,-3 -1,0 -2,-1 -4,-1 -1,-1 -2,-1 -3,-2 0,-1 1,-1 1,-2l1 -4c1,0 1,-1 1,-2 0,-1 1,-5 2,-6l3 -8c0,-1 0,-1 0,-1 1,-3 2,-6 3,-9 1,-5 2,-10 5,-15 2,-7 6,-13 11,-17l3 -3c3,-2 7,-4 11,-6l9 -3c2,-1 4,-2 6,-3 0,-1 1,-1 1,-1 1,0 7,-3 8,-4 0,0 0,0 0,0 0,0 0,0 0,0 1,-1 1,-1 2,-2 0,0 1,0 2,0 1,-1 2,-2 3,-3 0,0 1,0 1,-1 0,-1 1,-1 1,-1 3,-1 10,0 13,0l18 0c3,0 5,-1 8,-1 7,0 5,1 9,4 3,3 2,1 5,3 2,2 8,5 10,6l4 2c0,0 1,0 2,0l13 6c3,2 6,3 8,5l2 2c0,0 0,0 1,0 1,1 1,2 2,3l1 1c4,4 6,9 8,14 2,4 3,8 3,12 1,4 3,7 4,11 0,1 0,2 0,2 1,3 2,5 3,7l1 2c0,1 0,1 0,2 1,2 1,2 1,3 0,1 2,6 2,7 0,2 -22,10 -28,10 0,0 -1,0 -1,0 0,-1 -1,-1 -1,-2 0,-1 -1,-2 -1,-3 -1,-3 -2,-2 -2,-3 -1,-2 -1,-1 -1,-4 -1,0 -1,-1 -1,-1 -1,-2 -1,-4 -1,-6 -1,0 -1,-1 -1,-1 0,3 -1,3 -1,5 0,1 0,2 -1,3 0,1 -1,2 -1,4 0,3 -1,10 -2,12 0,1 0,2 0,3 0,3 0,4 0,8 -1,0 -1,1 -1,1 0,1 0,2 0,3 0,2 0,4 0,6 0,0 0,3 0,4 0,1 0,2 0,3l0 2c0,5 0,7 -1,12 0,0 0,0 0,1 -1,2 0,1 0,4 0,2 0,0 0,3 0,3 0,4 1,7 0,1 0,2 0,3 0,5 -2,6 0,11 2,5 3,9 3,14l0 0 0 0 0 0 0 0 0 0 0 0 0 0 0 0 0 0 0 1 0 0 0 0 0 0 0 0 0 0 0 0 0 0 0 0 0 0 0 0 0 0 0 1 0 0 0 0 0 0 0 0 0 0 0 0 0 0 0 0 0 0 0 1 0 0 0 0 0 0 0 0 0 0 0 0 0 0 0 0 0 0 0 0 0 0 0 0 0 0 0 1 0 0 0 0 0 0 0 0c0,0 0,0 0,0l0 0 0 0 0 0 0 1 0 4c0,0 0,1 0,2 0,2 0,2 0,4 0,1 0,3 0,4 0,1 0,8 1,10 0,2 0,4 1,6 0,4 0,3 0,4 -3,2 -14,3 -23,5l-92 -5z"/>
    </clipPath>
  <linearGradient id="id6" gradientUnits="userSpaceOnUse" x1="153.097" y1="266.283" x2="153.268" y2="28.0101">
   <stop offset="0" style="stop-opacity:1; stop-color:#232961"/>
   <stop offset="0.101961" style="stop-opacity:1; stop-color:#F3CD52"/>
   <stop offset="0.329412" style="stop-opacity:1; stop-color:white"/>
   <stop offset="0.419608" style="stop-opacity:1; stop-color:#232961"/>
   <stop offset="0.568627" style="stop-opacity:1; stop-color:#232961"/>
   <stop offset="0.678431" style="stop-opacity:1; stop-color:#F3CD52"/>
   <stop offset="0.788235" style="stop-opacity:1; stop-color:#DAC75E"/>
   <stop offset="0.870588" style="stop-opacity:1; stop-color:white"/>
   <stop offset="1" style="stop-opacity:1; stop-color:#232961"/>
  </linearGradient>
  <linearGradient id="id7" gradientUnits="userSpaceOnUse" xlink:href="#id6" x1="267.281" y1="187.051" x2="267.433" y2="-4.46898">
  </linearGradient>
  <linearGradient id="id8" gradientUnits="userSpaceOnUse" xlink:href="#id6" x1="156.269" y1="186.886" x2="156.422" y2="-4.63521">
  </linearGradient>
  <linearGradient id="id9" gradientUnits="userSpaceOnUse" xlink:href="#id6" x1="149.133" y1="186.886" x2="149.286" y2="-4.63521">
  </linearGradient>
  <linearGradient id="id10" gradientUnits="userSpaceOnUse" x1="81.1959" y1="210.419" x2="81.3592" y2="6.47526">
   <stop offset="0" style="stop-opacity:1; stop-color:#232961"/>
   <stop offset="0.160784" style="stop-opacity:1; stop-color:#F3CD52"/>
   <stop offset="0.309804" style="stop-opacity:1; stop-color:white"/>
   <stop offset="0.419608" style="stop-opacity:1; stop-color:#232961"/>
   <stop offset="0.521569" style="stop-opacity:1; stop-color:#232961"/>
   <stop offset="0.678431" style="stop-opacity:1; stop-color:#F3CD52"/>
   <stop offset="0.788235" style="stop-opacity:1; stop-color:#DAC75E"/>
   <stop offset="0.870588" style="stop-opacity:1; stop-color:white"/>
   <stop offset="1" style="stop-opacity:1; stop-color:#232961"/>
  </linearGradient>
  <linearGradient id="id11" gradientUnits="userSpaceOnUse" x1="253.232" y1="5.36546" x2="253.459" y2="195.885">
   <stop offset="0" style="stop-opacity:1; stop-color:#F3CD52"/>
   <stop offset="0.188235" style="stop-opacity:1; stop-color:#21285E"/>
   <stop offset="0.321569" style="stop-opacity:1; stop-color:#252B65"/>
   <stop offset="0.439216" style="stop-opacity:1; stop-color:#FEFEFE"/>
   <stop offset="0.501961" style="stop-opacity:1; stop-color:white"/>
   <stop offset="0.580392" style="stop-opacity:1; stop-color:#F3CD52"/>
   <stop offset="0.709804" style="stop-opacity:1; stop-color:#F3CD52"/>
   <stop offset="0.890196" style="stop-opacity:1; stop-color:#21285F"/>
   <stop offset="1" style="stop-opacity:1; stop-color:#5964A6"/>
  </linearGradient>
  <linearGradient id="id12" gradientUnits="userSpaceOnUse" xlink:href="#id10" x1="235.012" y1="210.584" x2="235.175" y2="6.64149">
  </linearGradient>
  <linearGradient id="id13" gradientUnits="userSpaceOnUse" x1="134.19" y1="18.5552" x2="134.04" y2="282.608">
   <stop offset="0" style="stop-opacity:1; stop-color:#F3CD52"/>
   <stop offset="0.188235" style="stop-opacity:1; stop-color:#21285E"/>
   <stop offset="0.321569" style="stop-opacity:1; stop-color:#252B65"/>
   <stop offset="0.439216" style="stop-opacity:1; stop-color:#FEFEFE"/>
   <stop offset="0.501961" style="stop-opacity:1; stop-color:white"/>
   <stop offset="0.560784" style="stop-opacity:1; stop-color:#F3CD52"/>
   <stop offset="0.709804" style="stop-opacity:1; stop-color:#F3CD52"/>
   <stop offset="0.839216" style="stop-opacity:1; stop-color:#21285F"/>
   <stop offset="1" style="stop-opacity:1; stop-color:white"/>
  </linearGradient>
  <linearGradient id="id14" gradientUnits="userSpaceOnUse" x1="110.142" y1="271.591" x2="109.311" y2="9.25888">
   <stop offset="0" style="stop-opacity:1; stop-color:#EDCA48"/>
   <stop offset="0.211765" style="stop-opacity:1; stop-color:#F3CD52"/>
   <stop offset="0.290196" style="stop-opacity:1; stop-color:white"/>
   <stop offset="0.380392" style="stop-opacity:1; stop-color:#232961"/>
   <stop offset="0.568627" style="stop-opacity:1; stop-color:#232961"/>
   <stop offset="0.639216" style="stop-opacity:1; stop-color:#F3CD52"/>
   <stop offset="0.760784" style="stop-opacity:1; stop-color:#DAC75E"/>
   <stop offset="0.819608" style="stop-opacity:1; stop-color:white"/>
   <stop offset="1" style="stop-opacity:1; stop-color:#232961"/>
  </linearGradient>
  <linearGradient id="id15" gradientUnits="userSpaceOnUse" xlink:href="#id13" x1="250.469" y1="-12.0684" x2="250.337" y2="200.173">
  </linearGradient>
  <linearGradient id="id16" gradientUnits="userSpaceOnUse" xlink:href="#id6" x1="233.326" y1="266.283" x2="233.498" y2="28.0101">
  </linearGradient>
  <linearGradient id="id17" gradientUnits="userSpaceOnUse" xlink:href="#id13" x1="186.358" y1="9.25888" x2="185.526" y2="271.591">
  </linearGradient>
  <linearGradient id="id18" gradientUnits="userSpaceOnUse" xlink:href="#id13" x1="32.4407" y1="-12.2347" x2="32.3071" y2="200.009">
  </linearGradient>
  <linearGradient id="id19" gradientUnits="userSpaceOnUse" xlink:href="#id6" x1="193.211" y1="266.283" x2="193.383" y2="28.0101">
  </linearGradient>
  <linearGradient id="id20" gradientUnits="userSpaceOnUse" xlink:href="#id11" x1="63.7475" y1="5.19923" x2="63.9753" y2="195.719">
  </linearGradient>
  <linearGradient id="id21" gradientUnits="userSpaceOnUse" xlink:href="#id11" x1="28.0803" y1="5.19923" x2="28.307" y2="195.719">
  </linearGradient>
  <linearGradient id="id22" gradientUnits="userSpaceOnUse" xlink:href="#id11" x1="288.899" y1="5.36546" x2="289.126" y2="195.885">
  </linearGradient>
  <linearGradient id="id23" gradientUnits="userSpaceOnUse" xlink:href="#id13" x1="175.593" y1="-19.5401" x2="174.854" y2="191.318">
  </linearGradient>
  <linearGradient id="id24" gradientUnits="userSpaceOnUse" xlink:href="#id13" x1="186.257" y1="-12.0684" x2="186.123" y2="200.173">
  </linearGradient>
  <linearGradient id="id25" gradientUnits="userSpaceOnUse" xlink:href="#id6" x1="121.009" y1="266.283" x2="121.18" y2="28.0101">
  </linearGradient>
  <linearGradient id="id26" gradientUnits="userSpaceOnUse" xlink:href="#id13" x1="21.777" y1="-19.7064" x2="21.0381" y2="191.152">
  </linearGradient>
  <linearGradient id="id27" gradientUnits="userSpaceOnUse" xlink:href="#id6" x1="195.945" y1="187.051" x2="196.098" y2="-4.46898">
  </linearGradient>
  <linearGradient id="id28" gradientUnits="userSpaceOnUse" xlink:href="#id13" x1="214.42" y1="18.5552" x2="214.269" y2="282.608">
  </linearGradient>
  <linearGradient id="id29" gradientUnits="userSpaceOnUse" xlink:href="#id13" x1="261.187" y1="-19.5401" x2="260.448" y2="191.318">
  </linearGradient>
  <linearGradient id="id30" gradientUnits="userSpaceOnUse" xlink:href="#id10" x1="156.92" y1="295.56" x2="157.103" y2="41.8322">
  </linearGradient>
  <linearGradient id="id31" gradientUnits="userSpaceOnUse" xlink:href="#id6" x1="241.353" y1="266.283" x2="241.524" y2="28.0101">
  </linearGradient>
  <linearGradient id="id32" gradientUnits="userSpaceOnUse" xlink:href="#id14" x1="190.371" y1="271.591" x2="189.54" y2="9.25888">
  </linearGradient>
  <linearGradient id="id33" gradientUnits="userSpaceOnUse" xlink:href="#id13" x1="90.0925" y1="9.25888" x2="89.2614" y2="271.591">
  </linearGradient>
  <linearGradient id="id34" gradientUnits="userSpaceOnUse" xlink:href="#id13" x1="128.78" y1="-19.7064" x2="128.041" y2="191.152">
  </linearGradient>
  <linearGradient id="id35" gradientUnits="userSpaceOnUse" xlink:href="#id13" x1="210.436" y1="9.25888" x2="209.605" y2="271.591">
  </linearGradient>
  <linearGradient id="id36" gradientUnits="userSpaceOnUse" xlink:href="#id13" x1="96.6542" y1="-12.2347" x2="96.5207" y2="200.009">
  </linearGradient>
  <linearGradient id="id37" gradientUnits="userSpaceOnUse" xlink:href="#id13" x1="246.929" y1="-19.5401" x2="246.19" y2="191.318">
  </linearGradient>
  <linearGradient id="id38" gradientUnits="userSpaceOnUse" xlink:href="#id11" x1="137.296" y1="40.2448" x2="137.551" y2="277.273">
  </linearGradient>
  <linearGradient id="id39" gradientUnits="userSpaceOnUse" xlink:href="#id13" x1="93.1125" y1="-19.7064" x2="92.3736" y2="191.152">
  </linearGradient>
  <linearGradient id="id40" gradientUnits="userSpaceOnUse" xlink:href="#id13" x1="257.592" y1="-12.0684" x2="257.459" y2="200.173">
  </linearGradient>
  <linearGradient id="id41" gradientUnits="userSpaceOnUse" xlink:href="#id10" x1="116.805" y1="295.56" x2="116.988" y2="41.8322">
  </linearGradient>
  <linearGradient id="id42" gradientUnits="userSpaceOnUse" xlink:href="#id13" x1="225.52" y1="-19.5401" x2="224.781" y2="191.318">
  </linearGradient>
  <linearGradient id="id43" gradientUnits="userSpaceOnUse" xlink:href="#id13" x1="211.26" y1="-19.5401" x2="210.521" y2="191.318">
  </linearGradient>
  <linearGradient id="id44" gradientUnits="userSpaceOnUse" xlink:href="#id10" x1="45.5286" y1="210.419" x2="45.691" y2="6.47526">
  </linearGradient>
  <linearGradient id="id45" gradientUnits="userSpaceOnUse" xlink:href="#id13" x1="130.208" y1="9.25888" x2="129.376" y2="271.591">
  </linearGradient>
  <linearGradient id="id46" gradientUnits="userSpaceOnUse" xlink:href="#id11" x1="181.895" y1="5.36546" x2="182.123" y2="195.885">
  </linearGradient>
  <linearGradient id="id47" gradientUnits="userSpaceOnUse" xlink:href="#id13" x1="179.135" y1="-12.0684" x2="179.001" y2="200.173">
  </linearGradient>
  <linearGradient id="id48" gradientUnits="userSpaceOnUse" xlink:href="#id13" x1="143.039" y1="-19.7064" x2="142.3" y2="191.152">
  </linearGradient>
  <linearGradient id="id49" gradientUnits="userSpaceOnUse" xlink:href="#id13" x1="189.851" y1="-19.5401" x2="189.112" y2="191.318">
  </linearGradient>
  <linearGradient id="id50" gradientUnits="userSpaceOnUse" xlink:href="#id6" x1="49.2664" y1="186.886" x2="49.4191" y2="-4.63521">
  </linearGradient>
  <linearGradient id="id51" gradientUnits="userSpaceOnUse" xlink:href="#id13" x1="106.128" y1="9.25888" x2="105.298" y2="271.591">
  </linearGradient>
  <linearGradient id="id52" gradientUnits="userSpaceOnUse" xlink:href="#id13" x1="57.4443" y1="-19.7064" x2="56.7054" y2="191.152">
  </linearGradient>
  <linearGradient id="id53" gradientUnits="userSpaceOnUse" xlink:href="#id6" x1="120.602" y1="186.886" x2="120.755" y2="-4.63521">
  </linearGradient>
  <linearGradient id="id54" gradientUnits="userSpaceOnUse" xlink:href="#id6" x1="42.13" y1="186.886" x2="42.2818" y2="-4.63521">
  </linearGradient>
  <linearGradient id="id55" gradientUnits="userSpaceOnUse" xlink:href="#id14" x1="125.212" y1="191.152" x2="124.473" y2="-19.7064">
  </linearGradient>
  <linearGradient id="id56" gradientUnits="userSpaceOnUse" xlink:href="#id6" x1="231.613" y1="187.051" x2="231.765" y2="-4.46898">
  </linearGradient>
  <linearGradient id="id57" gradientUnits="userSpaceOnUse" xlink:href="#id13" x1="25.3188" y1="-12.2347" x2="25.1852" y2="200.009">
  </linearGradient>
  <linearGradient id="id58" gradientUnits="userSpaceOnUse" xlink:href="#id13" x1="296.854" y1="-19.5401" x2="296.115" y2="191.318">
  </linearGradient>
  <linearGradient id="id59" gradientUnits="userSpaceOnUse" xlink:href="#id14" x1="279.028" y1="191.318" x2="278.289" y2="-19.5401">
  </linearGradient>
  <linearGradient id="id60" gradientUnits="userSpaceOnUse" xlink:href="#id13" x1="139.444" y1="-12.2347" x2="139.311" y2="200.009">
  </linearGradient>
  <linearGradient id="id61" gradientUnits="userSpaceOnUse" xlink:href="#id10" x1="199.345" y1="210.584" x2="199.507" y2="6.64149">
  </linearGradient>
  <linearGradient id="id62" gradientUnits="userSpaceOnUse" xlink:href="#id13" x1="222.429" y1="18.5552" x2="222.279" y2="282.608">
  </linearGradient>
  <linearGradient id="id63" gradientUnits="userSpaceOnUse" xlink:href="#id13" x1="142.2" y1="18.5552" x2="142.05" y2="282.608">
  </linearGradient>
  <linearGradient id="id64" gradientUnits="userSpaceOnUse" xlink:href="#id13" x1="293.259" y1="-12.0684" x2="293.127" y2="200.173">
  </linearGradient>
  <linearGradient id="id65" gradientUnits="userSpaceOnUse" xlink:href="#id13" x1="94.0762" y1="18.5552" x2="93.9254" y2="282.608">
  </linearGradient>
  <linearGradient id="id66" gradientUnits="userSpaceOnUse" xlink:href="#id14" x1="246.537" y1="271.591" x2="245.706" y2="9.25888">
  </linearGradient>
  <linearGradient id="id67" gradientUnits="userSpaceOnUse" xlink:href="#id6" x1="302.949" y1="187.051" x2="303.101" y2="-4.46898">
  </linearGradient>
  <linearGradient id="id68" gradientUnits="userSpaceOnUse" xlink:href="#id14" x1="229.087" y1="191.318" x2="228.348" y2="-19.5401">
  </linearGradient>
  <linearGradient id="id69" gradientUnits="userSpaceOnUse" xlink:href="#id13" x1="102.086" y1="18.5552" x2="101.936" y2="282.608">
  </linearGradient>
  <linearGradient id="id70" gradientUnits="userSpaceOnUse" xlink:href="#id6" x1="112.982" y1="266.283" x2="113.154" y2="28.0101">
  </linearGradient>
  <linearGradient id="id71" gradientUnits="userSpaceOnUse" xlink:href="#id6" x1="161.123" y1="266.283" x2="161.294" y2="28.0101">
  </linearGradient>
  <linearGradient id="id72" gradientUnits="userSpaceOnUse" xlink:href="#id14" x1="126.194" y1="271.591" x2="125.363" y2="9.25888">
  </linearGradient>
  <linearGradient id="id73" gradientUnits="userSpaceOnUse" xlink:href="#id14" x1="75.2712" y1="191.152" x2="74.5323" y2="-19.7064">
  </linearGradient>
  <linearGradient id="id74" gradientUnits="userSpaceOnUse" xlink:href="#id14" x1="166.308" y1="271.591" x2="165.478" y2="9.25888">
  </linearGradient>
  <linearGradient id="id75" gradientUnits="userSpaceOnUse" xlink:href="#id14" x1="53.8766" y1="191.152" x2="53.1377" y2="-19.7064">
  </linearGradient>
  <linearGradient id="id76" gradientUnits="userSpaceOnUse" xlink:href="#id10" x1="116.864" y1="210.419" x2="117.026" y2="6.47526">
  </linearGradient>
  <linearGradient id="id77" gradientUnits="userSpaceOnUse" xlink:href="#id13" x1="214.802" y1="-12.0684" x2="214.669" y2="200.173">
  </linearGradient>
  <linearGradient id="id78" gradientUnits="userSpaceOnUse" xlink:href="#id14" x1="207.693" y1="191.318" x2="206.954" y2="-19.5401">
  </linearGradient>
  <linearGradient id="id79" gradientUnits="userSpaceOnUse" xlink:href="#id13" x1="60.986" y1="-12.2347" x2="60.8534" y2="200.009">
  </linearGradient>
  <linearGradient id="id80" gradientUnits="userSpaceOnUse" xlink:href="#id13" x1="221.925" y1="-12.0684" x2="221.791" y2="200.173">
  </linearGradient>
  <linearGradient id="id81" gradientUnits="userSpaceOnUse" xlink:href="#id6" x1="238.75" y1="187.051" x2="238.902" y2="-4.46898">
  </linearGradient>
  <linearGradient id="id82" gradientUnits="userSpaceOnUse" xlink:href="#id11" x1="99.4158" y1="5.19923" x2="99.6425" y2="195.719">
  </linearGradient>
  <linearGradient id="id83" gradientUnits="userSpaceOnUse" xlink:href="#id6" x1="201.238" y1="266.283" x2="201.41" y2="28.0101">
  </linearGradient>
  <linearGradient id="id84" gradientUnits="userSpaceOnUse" xlink:href="#id13" x1="226.472" y1="9.25888" x2="225.642" y2="271.591">
  </linearGradient>
  <linearGradient id="id85" gradientUnits="userSpaceOnUse" xlink:href="#id14" x1="300.423" y1="191.318" x2="299.684" y2="-19.5401">
  </linearGradient>
  <linearGradient id="id86" gradientUnits="userSpaceOnUse" xlink:href="#id13" x1="174.305" y1="18.5552" x2="174.155" y2="282.608">
  </linearGradient>
  <linearGradient id="id87" gradientUnits="userSpaceOnUse" xlink:href="#id13" x1="36.0353" y1="-19.7064" x2="35.2964" y2="191.152">
  </linearGradient>
  <linearGradient id="id88" gradientUnits="userSpaceOnUse" xlink:href="#id14" x1="146.607" y1="191.152" x2="145.868" y2="-19.7064">
  </linearGradient>
  <linearGradient id="id89" gradientUnits="userSpaceOnUse" xlink:href="#id11" x1="135.083" y1="5.19923" x2="135.31" y2="195.719">
  </linearGradient>
  <linearGradient id="id90" gradientUnits="userSpaceOnUse" xlink:href="#id10" x1="270.68" y1="210.584" x2="270.842" y2="6.64149">
  </linearGradient>
  <linearGradient id="id91" gradientUnits="userSpaceOnUse" xlink:href="#id13" x1="286.138" y1="-12.0684" x2="286.004" y2="200.173">
  </linearGradient>
  <linearGradient id="id92" gradientUnits="userSpaceOnUse" xlink:href="#id14" x1="150.256" y1="271.591" x2="149.425" y2="9.25888">
  </linearGradient>
  <linearGradient id="id93" gradientUnits="userSpaceOnUse" xlink:href="#id13" x1="68.1079" y1="-12.2347" x2="67.9753" y2="200.009">
  </linearGradient>
  <linearGradient id="id94" gradientUnits="userSpaceOnUse" xlink:href="#id6" x1="310.085" y1="187.051" x2="310.237" y2="-4.46898">
  </linearGradient>
  <linearGradient id="id95" gradientUnits="userSpaceOnUse" xlink:href="#id13" x1="132.321" y1="-12.2347" x2="132.189" y2="200.009">
  </linearGradient>
  <linearGradient id="id96" gradientUnits="userSpaceOnUse" xlink:href="#id11" x1="217.564" y1="5.36546" x2="217.791" y2="195.885">
  </linearGradient>
  <linearGradient id="id97" gradientUnits="userSpaceOnUse" xlink:href="#id10" x1="152.531" y1="210.419" x2="152.695" y2="6.47526">
  </linearGradient>
  <linearGradient id="id98" gradientUnits="userSpaceOnUse" xlink:href="#id10" x1="306.347" y1="210.584" x2="306.511" y2="6.64149">
  </linearGradient>
  <linearGradient id="id99" gradientUnits="userSpaceOnUse" xlink:href="#id6" x1="113.465" y1="186.886" x2="113.617" y2="-4.63521">
  </linearGradient>
  <linearGradient id="id100" gradientUnits="userSpaceOnUse" xlink:href="#id11" x1="177.411" y1="40.2448" x2="177.666" y2="277.273">
  </linearGradient>
  <linearGradient id="id101" gradientUnits="userSpaceOnUse" xlink:href="#id13" x1="71.7035" y1="-19.7064" x2="70.9646" y2="191.152">
  </linearGradient>
  <linearGradient id="id102" gradientUnits="userSpaceOnUse" xlink:href="#id10" x1="237.149" y1="295.56" x2="237.331" y2="41.8322">
  </linearGradient>
  <linearGradient id="id103" gradientUnits="userSpaceOnUse" xlink:href="#id14" x1="264.754" y1="191.318" x2="264.016" y2="-19.5401">
  </linearGradient>
  <linearGradient id="id104" gradientUnits="userSpaceOnUse" xlink:href="#id13" x1="107.371" y1="-19.7064" x2="106.632" y2="191.152">
  </linearGradient>
  <linearGradient id="id105" gradientUnits="userSpaceOnUse" xlink:href="#id14" x1="89.5448" y1="191.152" x2="88.8059" y2="-19.7064">
  </linearGradient>
  <linearGradient id="id106" gradientUnits="userSpaceOnUse" xlink:href="#id14" x1="230.485" y1="271.591" x2="229.654" y2="9.25888">
  </linearGradient>
  <linearGradient id="id107" gradientUnits="userSpaceOnUse" xlink:href="#id10" x1="197.035" y1="295.56" x2="197.217" y2="41.8322">
  </linearGradient>
  <linearGradient id="id108" gradientUnits="userSpaceOnUse" xlink:href="#id13" x1="282.596" y1="-19.5401" x2="281.857" y2="191.318">
  </linearGradient>
  <linearGradient id="id109" gradientUnits="userSpaceOnUse" xlink:href="#id14" x1="110.938" y1="191.152" x2="110.2" y2="-19.7064">
  </linearGradient>
  <linearGradient id="id110" gradientUnits="userSpaceOnUse" xlink:href="#id13" x1="146.243" y1="9.25888" x2="145.412" y2="271.591">
  </linearGradient>
  <linearGradient id="id111" gradientUnits="userSpaceOnUse" xlink:href="#id14" x1="314.695" y1="191.318" x2="313.957" y2="-19.5401">
  </linearGradient>
  <linearGradient id="id112" gradientUnits="userSpaceOnUse" xlink:href="#id14" x1="243.36" y1="191.318" x2="242.621" y2="-19.5401">
  </linearGradient>
  <linearGradient id="id113" gradientUnits="userSpaceOnUse" xlink:href="#id6" x1="77.7973" y1="186.886" x2="77.9501" y2="-4.63521">
  </linearGradient>
  <linearGradient id="id114" gradientUnits="userSpaceOnUse" xlink:href="#id6" x1="84.9336" y1="186.886" x2="85.0864" y2="-4.63521">
  </linearGradient>
  <linearGradient id="id115" gradientUnits="userSpaceOnUse" xlink:href="#id6" x1="274.417" y1="187.051" x2="274.57" y2="-4.46898">
  </linearGradient>
  <linearGradient id="id116" gradientUnits="userSpaceOnUse" xlink:href="#id13" x1="170.322" y1="9.25888" x2="169.491" y2="271.591">
  </linearGradient>
  <linearGradient id="id117" gradientUnits="userSpaceOnUse" xlink:href="#id14" x1="193.419" y1="191.318" x2="192.68" y2="-19.5401">
  </linearGradient>
  <linearGradient id="id118" gradientUnits="userSpaceOnUse" xlink:href="#id14" x1="160.879" y1="191.152" x2="160.14" y2="-19.7064">
  </linearGradient>
  <linearGradient id="id119" gradientUnits="userSpaceOnUse" xlink:href="#id11" x1="97.1818" y1="40.2448" x2="97.4373" y2="277.273">
  </linearGradient>
  <linearGradient id="id120" gradientUnits="userSpaceOnUse" xlink:href="#id6" x1="203.082" y1="187.051" x2="203.234" y2="-4.46898">
  </linearGradient>
  <linearGradient id="id121" gradientUnits="userSpaceOnUse" xlink:href="#id13" x1="182.315" y1="18.5552" x2="182.165" y2="282.608">
  </linearGradient>
  <linearGradient id="id122" gradientUnits="userSpaceOnUse" xlink:href="#id11" x1="217.525" y1="40.2448" x2="217.781" y2="277.273">
  </linearGradient>
  <linearGradient id="id123" gradientUnits="userSpaceOnUse" xlink:href="#id14" x1="39.6039" y1="191.152" x2="38.865" y2="-19.7064">
  </linearGradient>
  <linearGradient id="id124" gradientUnits="userSpaceOnUse" xlink:href="#id14" x1="206.423" y1="271.591" x2="205.592" y2="9.25888">
  </linearGradient>
  <linearGradient id="id125" gradientUnits="userSpaceOnUse" xlink:href="#id13" x1="103.776" y1="-12.2347" x2="103.643" y2="200.009">
  </linearGradient>
  <linearGradient id="id126" gradientUnits="userSpaceOnUse" x1="208.967" y1="26.7043" x2="118.39" y2="53.1242">
   <stop offset="0" style="stop-opacity:1; stop-color:#4F4D4D"/>
   <stop offset="0.431373" style="stop-opacity:1; stop-color:#121212"/>
   <stop offset="0.819608" style="stop-opacity:1; stop-color:#333333"/>
   <stop offset="1" style="stop-opacity:1; stop-color:#282829"/>
  </linearGradient>
 </defs>
 <g id="Layer_x0020_1">
  <metadata id="CorelCorpID_0Corel-Layer"/>
  <g id="_2708395091920">
   <path class="fil0" d="M233 52c0,0 1,3 0,3 0,0 0,1 1,1 0,0 0,1 0,2 0,1 0,2 0,3 0,0 1,10 1,14 1,3 2,12 2,13 0,1 1,4 1,6 0,1 1,1 1,1 0,0 0,4 0,5 0,1 0,3 0,4 -1,0 -1,1 -1,2 -1,2 -1,3 -2,4 -1,3 0,2 -1,3 0,1 0,0 0,1 0,0 0,0 0,0 -1,1 -1,2 -2,3 0,0 0,1 0,2 -1,0 -1,2 -2,2 -2,0 -5,-1 -8,-2l-6 -2c-1,0 -2,-1 -3,-1l-3 -1c-1,-1 -2,-1 -3,-1 -1,-1 -2,-2 -3,-2 0,-1 1,-2 1,-3l1 -3c0,-1 0,-1 0,-1 0,-1 1,-3 1,-3 1,-1 1,-1 1,-1l1 -3c0,-1 1,-2 1,-3 1,-1 1,-3 1,-4 1,0 1,-1 1,-2 0,0 0,-1 0,-2 1,-1 1,-2 2,-3l3 -11c0,-1 1,-3 1,-4 1,-2 2,-4 3,-6 2,-2 4,-5 6,-7l1 -1c1,-1 2,-2 4,-3z"/>
   <path class="fil0" d="M207 105c0,0 4,2 7,3 4,2 12,4 15,5 2,1 5,1 5,1l0 0c0,1 0,2 -1,3 0,0 0,1 0,2 -1,0 -1,2 -2,2 -2,0 -5,-1 -8,-2l-6 -2c-1,0 -2,-1 -3,-1l-3 -1c-1,-1 -2,-1 -3,-1 -1,-1 -2,-2 -3,-2 0,-1 1,-2 1,-3l1 -3c0,0 0,-1 0,-1z"/>
   <path class="fil1" d="M207 107c4,2 16,8 27,9 0,0 -1,1 -1,1 0,0 0,1 0,2 0,0 -1,0 -1,0 -10,-2 -22,-7 -26,-9 0,0 0,-1 0,-1l1 -2z"/>
   <path id="SHADOW_x0020_OUTLINE" class="fil2" d="M71 115c1,1 2,1 3,2 2,0 3,1 4,1 2,1 5,2 7,3 3,1 5,2 7,2 3,1 6,2 9,2 0,0 0,0 1,-1l2 -5c0,-1 0,-1 0,-1 1,-1 1,-1 1,-1 2,-4 1,-5 2,-8 0,0 0,-1 1,-1 0,-1 0,-1 0,-1 0,-1 1,-2 1,-3 0,1 1,1 1,3 0,1 0,2 0,3 0,0 1,1 1,2 0,0 0,1 0,1 0,1 0,2 1,6 0,2 0,2 1,4 0,2 0,5 0,7 1,4 1,3 1,8 0,1 0,2 0,4 1,0 1,1 1,1l0 2c0,2 0,3 0,4 0,1 0,2 0,3 0,1 0,6 0,8 0,0 0,1 0,1 0,1 0,1 0,2 0,0 1,1 1,1 0,1 0,2 0,3 0,1 0,1 0,2 0,1 0,3 0,4 0,2 0,5 0,7 0,1 0,2 0,3 0,2 0,6 -1,9 -1,6 -2,8 -2,14 0,1 0,2 0,3l1 5c0,1 -1,3 -1,4 -1,1 -1,1 -1,2 0,1 0,1 0,2 -1,2 -2,6 -1,8 0,2 0,3 0,5 1,3 0,4 0,7 0,2 0,4 0,6 -1,1 -1,1 -1,2 0,0 0,1 0,1 0,1 0,1 0,2l0 0c0,0 2,1 7,2 6,1 22,3 28,4 6,0 19,1 24,1 6,0 24,-1 33,-2 9,-2 20,-3 23,-5 0,-1 0,0 0,-4 -1,-2 -1,-4 -1,-6 -1,-2 -1,-9 -1,-10 0,-1 0,-3 0,-4 0,-2 0,-2 0,-4 0,-1 0,-2 0,-2l0 -4c0,-7 -1,-13 -3,-19 -2,-5 0,-6 0,-11 0,-1 0,-2 0,-3 -1,-3 -1,-4 -1,-7 0,-3 0,-1 0,-3 0,-3 -1,-2 0,-4 0,-1 0,-1 0,-1 1,-5 1,-7 1,-12l0 -2c0,-1 0,-2 0,-3 0,-1 0,-4 0,-4 0,-2 0,-4 0,-6 0,-1 0,-2 0,-3 0,0 0,-1 1,-1 0,-4 0,-5 0,-8 0,-1 0,-2 0,-3 1,-2 2,-9 2,-12 0,-2 1,-3 1,-4 1,-1 1,-2 1,-3 0,-2 1,-2 1,-5 0,0 0,1 1,1 0,2 0,4 1,6 0,0 0,1 1,1 0,3 0,2 1,4 0,1 1,0 2,3 0,1 1,2 1,3 0,1 1,1 1,2 0,0 1,0 1,0 6,0 28,-8 28,-10 0,-1 -2,-6 -2,-7 0,-1 0,-1 -1,-3 0,-1 0,-1 0,-2l-1 -2c-1,-2 -2,-4 -3,-7 0,0 0,-1 0,-2 -1,-4 -3,-7 -4,-11 0,-4 -1,-8 -3,-12 -2,-5 -4,-10 -8,-14l-1 -1c-1,-1 -1,-2 -2,-3 -1,0 -1,0 -1,0l-2 -2c-2,-2 -5,-3 -8,-5l-13 -6c-1,0 -2,0 -2,0l-4 -2c-2,-1 -8,-4 -10,-6 -3,-2 -2,0 -5,-3 -4,-3 -2,-4 -9,-4 -3,0 -5,1 -8,1l-18 0c-3,0 -10,-1 -13,0 0,0 -1,0 -1,1 0,1 -1,1 -1,1 -1,1 -2,2 -3,3 -1,0 -2,0 -2,0 -1,1 -1,1 -2,2 0,0 0,0 0,0 0,0 0,0 0,0 -1,1 -7,4 -8,4 0,0 -1,0 -1,1 -2,1 -4,2 -6,3l-9 3c-4,2 -8,4 -11,6l-3 3c-5,4 -9,10 -11,17 -3,5 -4,10 -5,15 -1,3 -2,6 -3,9 0,0 0,0 0,1l-3 8c-1,1 -2,5 -2,6 0,1 0,2 -1,2l-1 4c0,1 -1,1 -1,2z"/>
   <g style="clip-path:url(#id0)">
   </g>
   <path id="1" class="fil0" d="M71 115c1,1 2,1 3,2 2,0 3,1 4,1 2,1 5,2 7,3 3,1 5,2 7,2 3,1 6,2 9,2 0,0 0,0 1,-1l2 -5c0,-1 0,-1 0,-1 1,-1 1,-1 1,-1 2,-4 1,-5 2,-8 0,0 0,-1 1,-1 0,-1 0,-1 0,-1 0,-1 1,-2 1,-3 0,1 1,1 1,3 0,1 0,2 0,3 0,0 1,1 1,2 0,0 0,1 0,1 0,1 0,2 1,6 0,2 0,2 1,4 0,2 0,5 0,7 1,4 1,3 1,8 0,1 0,2 0,4 1,0 1,1 1,1l0 2c0,2 0,3 0,4 0,1 0,2 0,3 0,1 0,6 0,8 0,0 0,1 0,1 0,1 0,1 0,2 0,0 1,1 1,1 0,1 0,2 0,3 0,1 0,1 0,2 0,1 0,3 0,4 0,2 0,5 0,7 0,1 0,2 0,3 0,2 0,6 -1,9 -1,6 -2,8 -2,14 0,1 0,2 0,3l1 5c0,1 -1,3 -1,4 -1,1 -1,1 -1,2 0,1 0,1 0,2 -1,2 -2,6 -1,8 0,2 0,3 0,5 1,3 0,4 0,7 0,2 0,4 0,6 -1,1 -1,1 -1,2 0,0 0,1 0,1 0,1 0,1 0,2l0 0c0,0 2,1 7,2 6,1 22,3 28,4 6,0 19,1 24,1 6,0 24,-1 33,-2 9,-2 20,-3 23,-5 0,-1 0,0 0,-4 -1,-2 -1,-4 -1,-6 -1,-2 -1,-9 -1,-10 0,-1 0,-3 0,-4 0,-2 0,-2 0,-4 0,-1 0,-2 0,-2l0 -4c0,-7 -1,-13 -3,-19 -2,-5 0,-6 0,-11 0,-1 0,-2 0,-3 -1,-3 -1,-4 -1,-7 0,-3 0,-1 0,-3 0,-3 -1,-2 0,-4 0,-1 0,-1 0,-1 1,-5 1,-7 1,-12l0 -2c0,-1 0,-2 0,-3 0,-1 0,-4 0,-4 0,-2 0,-4 0,-6 0,-1 0,-2 0,-3 0,0 0,-1 1,-1 0,-4 0,-5 0,-8 0,-1 0,-2 0,-3 1,-2 2,-9 2,-12 0,-2 1,-3 1,-4 1,-1 1,-2 1,-3 0,-2 1,-2 1,-5 0,0 0,1 1,1 0,2 0,4 1,6 0,0 0,1 1,1 0,3 0,2 1,4 0,1 1,0 2,3 0,1 1,2 1,3 0,1 1,1 1,2 0,0 1,0 1,0 6,0 28,-8 28,-10 0,-1 -2,-6 -2,-7 0,-1 0,-1 -1,-3 0,-1 0,-1 0,-2l-1 -2c-1,-2 -2,-4 -3,-7 0,0 0,-1 0,-2 -1,-4 -3,-7 -4,-11 0,-4 -1,-8 -3,-12 -2,-5 -4,-10 -8,-14l-1 -1c-1,-1 -1,-2 -2,-3 -1,0 -1,0 -1,0l-2 -2c-2,-2 -5,-3 -8,-5l-13 -6c-1,0 -2,0 -2,0l-4 -2c-2,-1 -8,-4 -10,-6 -3,-2 -2,0 -5,-3 -4,-3 -2,-4 -9,-4 -3,0 -5,1 -8,1l-18 0c-3,0 -10,-1 -13,0 0,0 -1,0 -1,1 0,1 -1,1 -1,1 -1,1 -2,2 -3,3 -1,0 -2,0 -2,0 -1,1 -1,1 -2,2 0,0 0,0 0,0 0,0 0,0 0,0 -1,1 -7,4 -8,4 0,0 -1,0 -1,1 -2,1 -4,2 -6,3l-9 3c-4,2 -8,4 -11,6l-3 3c-5,4 -9,10 -11,17 -3,5 -4,10 -5,15 -1,3 -2,6 -3,9 0,0 0,0 0,1l-3 8c-1,1 -2,5 -2,6 0,1 0,2 -1,2l-1 4c0,1 -1,1 -1,2z"/>
   <g style="clip-path:url(#id1)">
    <path id="2" class="fil0 str0" d="M71 23l192 237m0 -237l-192 237"/>
   </g>
   <path id="BODY" class="fil2" d="M71 115c1,1 2,1 3,2 2,0 3,1 4,1 2,1 5,2 7,3 3,1 5,2 7,2 3,1 6,2 9,2 0,0 0,0 1,-1l2 -5c0,-1 0,-1 0,-1 1,-1 1,-1 1,-1 2,-4 1,-5 2,-8 0,0 0,-1 1,-1 0,-1 0,-1 0,-1 0,-1 1,-2 1,-3 0,1 1,1 1,3 0,1 0,2 0,3 0,0 1,1 1,2 0,0 0,1 0,1 0,1 0,2 1,6 0,2 0,2 1,4 0,2 0,5 0,7 1,4 1,3 1,8 0,1 0,2 0,4 1,0 1,1 1,1l0 2c0,2 0,3 0,4 0,1 0,2 0,3 0,1 0,6 0,8 0,0 0,1 0,1 0,1 0,1 0,2 0,0 1,1 1,1 0,1 0,2 0,3 0,1 0,1 0,2 0,1 0,3 0,4 0,2 0,5 0,7 0,1 0,2 0,3 0,2 0,6 -1,9 -1,6 -2,8 -2,14 0,1 0,2 0,3l1 5c0,1 -1,3 -1,4 -1,1 -1,1 -1,2 0,1 0,1 0,2 -1,2 -2,6 -1,8 0,2 0,3 0,5 1,3 0,4 0,7 0,2 0,4 0,6 -1,1 -1,1 -1,2 0,0 0,1 0,1 0,1 0,1 0,2l0 0c0,0 2,1 7,2 6,1 22,3 28,4 6,0 19,1 24,1 6,0 24,-1 33,-2 9,-2 20,-3 23,-5 0,-1 0,0 0,-4 -1,-2 -1,-4 -1,-6 -1,-2 -1,-9 -1,-10 0,-1 0,-3 0,-4 0,-2 0,-2 0,-4 0,-1 0,-2 0,-2l0 -4c0,-7 -1,-13 -3,-19 -2,-5 0,-6 0,-11 0,-1 0,-2 0,-3 -1,-3 -1,-4 -1,-7 0,-3 0,-1 0,-3 0,-3 -1,-2 0,-4 0,-1 0,-1 0,-1 1,-5 1,-7 1,-12l0 -2c0,-1 0,-2 0,-3 0,-1 0,-4 0,-4 0,-2 0,-4 0,-6 0,-1 0,-2 0,-3 0,0 0,-1 1,-1 0,-4 0,-5 0,-8 0,-1 0,-2 0,-3 1,-2 2,-9 2,-12 0,-2 1,-3 1,-4 1,-1 1,-2 1,-3 0,-2 1,-2 1,-5 0,0 0,1 1,1 0,2 0,4 1,6 0,0 0,1 1,1 0,3 0,2 1,4 0,1 1,0 2,3 0,1 1,2 1,3 0,1 1,1 1,2 0,0 1,0 1,0 6,0 28,-8 28,-10 0,-1 -2,-6 -2,-7 0,-1 0,-1 -1,-3 0,-1 0,-1 0,-2l-1 -2c-1,-2 -2,-4 -3,-7 0,0 0,-1 0,-2 -1,-4 -3,-7 -4,-11 0,-4 -1,-8 -3,-12 -2,-5 -4,-10 -8,-14l-1 -1c-1,-1 -1,-2 -2,-3 -1,0 -1,0 -1,0l-2 -2c-2,-2 -5,-3 -8,-5l-13 -6c-1,0 -2,0 -2,0l-4 -2c-2,-1 -8,-4 -10,-6 -3,-2 -2,0 -5,-3 -4,-3 -2,-4 -9,-4 -3,0 -5,1 -8,1l-18 0c-3,0 -10,-1 -13,0 0,0 -1,0 -1,1 0,1 -1,1 -1,1 -1,1 -2,2 -3,3 -1,0 -2,0 -2,0 -1,1 -1,1 -2,2 0,0 0,0 0,0 0,0 0,0 0,0 -1,1 -7,4 -8,4 0,0 -1,0 -1,1 -2,1 -4,2 -6,3l-9 3c-4,2 -8,4 -11,6l-3 3c-5,4 -9,10 -11,17 -3,5 -4,10 -5,15 -1,3 -2,6 -3,9 0,0 0,0 0,1l-3 8c-1,1 -2,5 -2,6 0,1 0,2 -1,2l-1 4c0,1 -1,1 -1,2z"/>
   <g style="clip-path:url(#id2)">
    <g>
     <rect class="fil2" x="101" y="20" width="133" height="243"/>
     <g>
      <g>
       <rect class="fil3" x="139" y="23" width="4.01303" height="236.862"/>
       <rect class="fil4" x="131" y="23" width="4.01303" height="236.862"/>
       <rect class="fil5" x="143" y="23" width="4.01303" height="236.862"/>
       <rect class="fil6" x="127" y="23" width="4.01303" height="236.862"/>
       <rect class="fil7" x="135" y="23" width="4.01303" height="236.862"/>
       <rect class="fil8" x="147" y="23" width="4.01303" height="236.862"/>
       <rect class="fil9" x="163" y="23" width="4.01303" height="236.862"/>
       <rect class="fil10" x="151" y="23" width="4.01303" height="236.862"/>
       <rect class="fil11" x="159" y="23" width="4.01303" height="236.862"/>
       <rect class="fil12" x="155" y="23" width="4.01303" height="236.862"/>
      </g>
      <g>
       <rect class="fil13" x="219" y="23" width="4.01303" height="236.862"/>
       <rect class="fil14" x="211" y="23" width="4.01303" height="236.862"/>
       <rect class="fil15" x="223" y="23" width="4.01303" height="236.862"/>
       <rect class="fil16" x="207" y="23" width="4.01303" height="236.862"/>
       <rect class="fil17" x="215" y="23" width="4.01303" height="236.862"/>
       <rect class="fil18" x="227" y="23" width="4.01303" height="236.862"/>
       <rect class="fil19" x="244" y="23" width="4.01303" height="236.862"/>
       <rect class="fil20" x="232" y="23" width="4.01303" height="236.862"/>
       <rect class="fil21" x="240" y="23" width="4.01303" height="236.862"/>
       <rect class="fil22" x="236" y="23" width="4.01303" height="236.862"/>
      </g>
      <g>
       <rect class="fil23" x="99" y="23" width="4.01303" height="236.862"/>
       <rect class="fil24" x="91" y="23" width="4.01303" height="236.862"/>
       <rect class="fil25" x="103" y="23" width="4.01303" height="236.862"/>
       <rect class="fil26" x="87" y="23" width="4.01303" height="236.862"/>
       <rect class="fil27" x="95" y="23" width="4.01303" height="236.862"/>
       <rect class="fil28" x="107" y="23" width="4.01303" height="236.862"/>
       <rect class="fil29" x="123" y="23" width="4.01303" height="236.862"/>
       <rect class="fil30" x="111" y="23" width="4.01303" height="236.862"/>
       <rect class="fil31" x="119" y="23" width="4.01303" height="236.862"/>
       <rect class="fil32" x="115" y="23" width="4.01303" height="236.862"/>
      </g>
      <g>
       <rect class="fil33" x="179" y="23" width="4.01303" height="236.862"/>
       <rect class="fil34" x="171" y="23" width="4.01303" height="236.862"/>
       <rect class="fil35" x="183" y="23" width="4.01303" height="236.862"/>
       <rect class="fil36" x="167" y="23" width="4.01303" height="236.862"/>
       <rect class="fil37" x="175" y="23" width="4.01303" height="236.862"/>
       <rect class="fil38" x="187" y="23" width="4.01303" height="236.862"/>
       <rect class="fil39" x="203" y="23" width="4.01303" height="236.862"/>
       <rect class="fil40" x="191" y="23" width="4.01303" height="236.862"/>
       <rect class="fil41" x="199" y="23" width="4.01303" height="236.862"/>
       <rect class="fil42" x="195" y="23" width="4.01303" height="236.862"/>
      </g>
     </g>
     <g>
      <path class="fil43" d="M187 131c0,0 0,0 0,0l-3 0c-1,0 -2,0 -2,-1l-2 -6 -3 6c0,1 0,1 -1,1l-3 0c-1,0 -2,-1 -2,-2l7 -16c1,-1 3,-1 3,0l5 12 0 -3 6 0 0 4c3,0 5,-1 5,-4 0,-3 -2,-4 -5,-4l0 3 -6 0 0 -8c0,0 1,-1 2,-1l3 0c1,0 3,0 4,0 5,1 8,5 8,10 0,7 -6,9 -12,9l-3 0c0,0 0,0 -1,0zm-27 -17l0 -1c0,0 0,-1 1,-1l10 0 0 6 -5 0 0 1 6 0c1,0 1,0 1,1l0 3c0,1 0,1 -1,1l-6 0 0 2 5 0 0 5 -10 0c0,0 0,0 0,0 0,0 -1,0 -1,0l-3 0c-1,0 -1,0 -2,0l-2 -6 0 5c0,1 -1,1 -2,1l-3 0c-1,0 -1,0 -1,-1l0 -2c-3,2 -7,3 -11,3l-3 0c-1,0 -1,0 -1,-1l0 -8 6 0 0 4c2,0 4,-1 4,-4 0,-3 -2,-4 -4,-4l0 3 -6 0 0 -8c0,0 0,-1 1,-1l3 0c2,0 3,0 5,0 2,1 4,2 6,4l0 -3c0,0 0,-1 1,-1l6 0c2,0 4,1 6,2zm0 8c-1,1 -1,1 -2,1 1,1 1,2 2,3l0 -4zm-12 -4c0,0 0,0 0,1l6 0c0,0 1,0 1,0 0,0 0,0 0,-1 0,0 0,0 0,0 0,0 -1,0 -1,0l-6 0zm52 18l0 4c0,0 0,1 -1,1l-1 0c-1,0 -1,-1 -1,-1l0 -4 -1 0c0,0 -1,-1 -1,-2l0 -1c0,0 1,-1 1,-1l4 0c1,0 2,1 2,1l0 1c0,1 -1,2 -2,2l0 0zm-17 1l0 -4c0,0 1,-1 1,-1l2 0c0,0 1,1 1,1l0 3 0 0 0 -3c0,0 1,-1 1,-1l2 0c0,0 1,1 1,1l0 7c0,0 -1,1 -1,1l-2 0c0,0 -1,0 -1,-1l0 0c0,1 -1,1 -1,1l-2 0c0,0 -1,-1 -1,-1l0 -3zm-45 4l-1 -2 0 0 -4 0 0 -6c0,0 1,-1 1,-1l1 0c1,0 1,0 2,1l1 1 0 -1c0,0 0,-1 1,-1l1 0c1,0 1,1 1,1l0 7c0,0 0,1 -1,1l-1 0c0,0 -1,0 -1,0zm17 -4c0,2 -2,4 -5,4 -2,0 -4,-2 -4,-4 0,-3 2,-5 4,-5 3,0 5,2 5,5zm8 0c0,0 0,0 0,0 0,0 0,0 0,0l0 -4c0,0 1,-1 1,-1l2 0c0,0 1,1 1,1l0 5c0,2 -2,3 -4,3 -2,0 -4,-1 -4,-3l0 -5 4 0 0 4zm16 -3l0 6c0,0 -1,1 -1,1l-2 0c0,0 -1,0 -1,0 -3,-1 -4,-2 -4,-4 0,-4 3,-5 5,-5l2 0c0,0 1,1 1,1l0 1z"/>
     </g>
     <g>
      <path class="fil44" d="M136 113l-3 0c0,0 0,0 0,0l0 7 4 0 0 -4c4,0 7,2 7,6 0,5 -5,5 -7,5l0 -4 -4 0 0 7c0,0 0,0 0,0l3 0c5,0 11,-1 11,-8 0,-8 -6,-9 -11,-9zm24 17c-1,-3 -2,-5 -3,-7 2,-1 3,-2 3,-5 0,-5 -5,-5 -6,-5l-6 0c0,0 0,0 0,0l0 3 3 0 3 0c1,0 3,0 3,2 0,2 -2,2 -3,2l-3 0 -3 0 0 10c0,0 0,0 0,0l3 0c0,0 0,0 0,0l0 -7 2 0 4 7c0,0 0,0 0,0l3 0c0,0 0,0 0,0zm10 -3l-5 0 0 -4 7 0c0,0 0,0 0,0l0 -3c0,0 0,0 0,0l-7 0 0 -4 5 0 0 -3 -9 0c0,0 0,0 0,0l0 17c0,0 0,0 0,0l9 0 0 -3zm17 3l-7 -17c0,0 0,0 0,0l-7 17c-1,0 0,0 0,0l3 0c0,0 0,0 0,0l4 -9 3 9c0,0 1,0 1,0l3 0c0,0 0,0 0,0zm4 -17l-3 0c0,0 0,0 0,0l0 7 3 0 0 -4c4,0 7,2 7,6 0,5 -5,5 -7,5l0 -4 -3 0 0 7c0,0 0,0 0,0l3 0c5,0 11,-1 11,-8 0,-8 -7,-9 -11,-9z"/>
      <path class="fil44" d="M140 133l-1 0c0,0 0,0 0,0l0 5 -3 -5c0,0 -1,0 -1,0l-1 0c0,0 0,0 0,0l0 5 2 0 0 -3 3 5c0,0 0,0 0,0l1 0c0,0 0,0 0,0l0 -7c0,0 0,0 0,0zm11 4c0,-1 0,-1 -1,-1 0,0 0,0 0,1 0,0 0,0 0,0 1,0 1,0 1,0zm3 0c0,-2 -1,-4 -4,-4 -2,0 -3,2 -3,4 0,1 1,3 3,3 3,0 4,-2 4,-3zm-2 0c0,1 0,2 -2,2 -1,0 -2,-1 -2,-2 0,-2 1,-3 2,-3 2,0 2,1 2,3zm14 -4l-2 0c0,0 0,0 0,0l0 5c0,0 0,1 -1,1 -1,0 -1,-1 -1,-1l0 -4 -2 0 0 4c0,1 2,2 3,2 2,0 3,-1 3,-2l0 -5c0,0 0,0 0,0zm12 1l0 -1c0,0 0,0 0,0l-2 0c-1,0 -4,1 -4,4 0,2 3,3 4,3l2 0c0,0 0,0 0,0l0 -3 0 0 0 -1 -2 0 -1 0 0 1 1 0 0 0 0 0 0 2c-1,0 -2,-1 -2,-2 0,-3 1,-3 2,-3l0 0 2 0zm8 2l0 0 0 -3c0,0 0,0 0,0l-2 0c0,0 0,0 0,0l0 3 2 0zm4 -3l-2 0c0,0 0,0 0,0l0 3 0 1 0 0 -2 0 0 0 -2 0 0 3c0,0 0,0 0,0l2 0c0,0 0,0 0,0l0 -1 2 0 0 1c0,0 0,0 0,0l2 0c0,0 0,0 0,0l0 -7c0,0 0,0 0,0zm8 3l0 4c0,0 0,0 0,0l1 0c0,0 0,0 0,0l0 -4 -1 0zm-2 -2l4 0c1,0 1,0 1,0l0 -1c0,0 0,0 -1,0l-4 0c0,0 0,0 0,0l0 1c0,0 0,0 0,0z"/>
     </g>
     <g>
      <path class="fil43" d="M144 82c0,0 0,0 0,0l0 2c0,0 0,0 0,0l-5 4c-1,0 -1,0 -1,0 0,0 -1,1 -1,0 0,0 0,0 0,0 0,0 0,0 0,0 0,1 -1,0 -1,0 0,0 0,0 -1,0l-5 -4c0,0 0,0 0,0l0 -2c0,0 0,0 0,0 0,0 0,-1 0,-1l0 -7c0,-1 0,-1 1,-1 0,0 1,0 1,0 0,1 1,4 2,4 1,0 2,-1 2,-1 0,0 0,-1 0,-1 1,0 1,0 1,0 0,0 0,0 1,0 0,0 0,1 0,1 0,0 1,1 2,1 1,0 2,-3 2,-4 0,0 1,0 1,0 1,0 1,0 1,1l0 7c0,0 0,1 0,1z"/>
     </g>
     <g>
      <path class="fil45" d="M131 74c0,0 1,4 3,4 2,0 3,-2 3,-2l0 0c0,0 0,0 0,0 0,0 0,0 0,0l0 0c0,0 1,2 3,2 2,0 3,-4 3,-4l0 7 -4 3 -2 4 1 -5c0,0 1,0 2,-1 2,-1 2,-3 2,-3l-5 2 0 0 0 0 0 0 0 0 -5 -2c0,0 0,2 2,3 1,1 2,1 2,1l1 5 -2 -4 -4 -3 0 -7zm0 8l3 2 2 4 -5 -4 0 -2zm12 0l-3 2 -2 4 5 -4 0 -2z"/>
      <path class="fil45" d="M137 86l-1 -4c0,0 0,1 -2,0 -1,-1 -1,-3 -1,-3l4 2 0 0 0 0 0 0 0 0 4 -2c0,0 0,2 -1,3 -2,1 -2,0 -2,0l-1 4z"/>
     </g>
     <path class="fil45" d="M198 70c5,0 10,5 10,11 0,5 -5,10 -10,10 -6,0 -11,-5 -11,-10 0,-6 5,-11 11,-11z"/>
     <path class="fil46" d="M198 71c5,0 9,4 9,10 0,5 -4,9 -9,9 -6,0 -10,-4 -10,-9 0,-6 4,-10 10,-10z"/>
     <path class="fil45" d="M198 74c1,0 2,0 3,0l0 0c0,1 0,1 0,1 0,0 0,0 0,0 0,0 -1,0 -1,0 -1,-1 -1,-1 -2,-1 0,0 0,0 0,0l-1 0 0 0c0,0 -1,0 -1,1 -1,-1 -1,-1 -1,-1l0 0c1,0 2,0 3,0zm3 1c2,1 3,3 3,6 0,3 -3,6 -6,6 -4,0 -7,-3 -7,-6 0,-3 1,-5 2,-6 0,0 0,0 1,1 -2,1 -3,3 -3,5 0,3 3,6 6,6l0 0 1 0c0,0 0,0 0,0 3,0 6,-3 6,-6 0,-2 -1,-4 -2,-5 0,0 0,0 0,0l0 -1 0 1 0 0 0 0c0,0 0,0 -1,0 1,-1 1,-1 0,-1 0,0 0,0 0,0 0,0 0,0 0,0zm-7 0c0,0 0,-1 1,-1l0 0 0 0 0 1c0,0 0,0 0,0l0 0c0,0 0,0 0,0 0,0 0,0 0,0 0,0 0,0 0,0 -1,0 -1,0 -1,0z"/>
     <path class="fil44" d="M190 86l0 0 0 -1 0 0 0 0 1 -1 1 1 -2 1 0 0zm1 -1l0 0 0 0 0 0zm2 2l0 0 -1 0 0 1 0 -1 1 -1 0 0 0 1 0 0zm0 0l0 0 0 -1 -1 1 1 0zm2 2l0 0 0 -1 -1 1 0 0 1 -2 0 0 1 1 -1 1zm0 -1l0 0 0 0 0 0 0 0zm2 2l0 -1 0 0 0 1 0 0 0 -2 0 0 1 2 -1 0zm0 -1l0 -1 0 1 0 0zm4 0l-1 0 0 0 0 0 0 0 0 1 -1 -2 1 -1 0 1 0 0 0 1 1 0zm-1 -1l0 0 0 0 -1 0 1 0zm3 0l-1 0 -1 -1 1 -1 0 1 0 0 0 0 0 0 1 0 -1 1 0 0 1 0 0 0zm2 -2l-1 1 -1 -2 0 0 1 1 1 0 0 0z"/>
     <path class="fil46" d="M201 76l0 1c0,0 0,0 0,0 0,0 0,0 0,0 0,1 0,1 0,1 0,0 0,0 -1,0 1,0 1,0 1,0l0 0 -1 0c0,0 0,0 0,-1 0,0 0,0 0,0 0,0 -1,0 -1,0 0,0 0,0 0,0 1,0 1,1 1,1 0,0 1,0 1,1 0,0 0,0 0,0 0,-1 0,-1 0,-1 0,0 0,0 0,0l0 -1 0 1c0,0 1,-1 1,-1 0,0 0,0 0,1l1 0 -1 0c0,0 0,0 0,0 0,0 0,0 0,0 0,0 0,0 0,0 0,0 1,0 1,0l0 1 0 0 0 0 0 0c0,0 0,0 0,0l-1 0c0,0 0,0 0,0 0,0 0,0 0,0 0,0 0,0 0,0 1,0 1,0 1,0 0,0 -1,0 -1,0 0,1 0,1 0,1 0,0 0,0 1,0 0,0 0,0 0,0l0 0 0 1c0,0 0,0 0,0 -1,0 -1,0 -1,0l0 0 0 0c0,0 0,0 0,0l0 0c0,0 0,0 0,0 0,0 0,0 0,0 0,0 0,1 0,1 0,0 0,0 -1,0l0 0 0 0c0,0 0,0 0,0 0,0 0,0 0,0l0 0c0,0 0,0 0,0 0,0 -1,0 -1,0 0,0 0,0 0,0 0,0 0,0 0,0 0,1 0,1 0,1l0 0c1,0 1,0 1,0 0,0 0,0 0,0 0,0 0,0 0,0 0,0 0,0 0,0l0 0 0 0c0,0 0,0 0,0 1,0 1,0 1,0l0 0c0,0 0,1 0,1l0 0 0 0 0 0c-1,0 -1,0 -1,0 0,0 0,0 0,0 0,0 0,0 0,0 0,0 0,0 0,1 0,0 0,0 0,0 0,0 0,0 0,0 0,0 0,1 0,1l-1 -1 1 0c0,0 0,0 0,0 0,0 0,0 0,0 0,0 0,0 -1,0 0,0 0,0 0,0l0 0c0,0 0,0 0,0 0,0 0,0 0,0l0 0 0 0 -1 0c0,0 0,0 0,0l0 0c0,0 0,0 0,0l1 0 -1 0c0,0 0,0 0,0 0,1 0,1 0,1l1 0 0 0 0 0 -1 0 0 0c0,0 -1,0 -1,1 0,0 0,0 0,0l-1 0 0 0c0,0 0,-1 0,-1 0,0 0,0 0,0 -1,0 -1,0 -2,0 0,0 0,0 0,0 0,0 0,-1 0,-1 0,0 0,0 0,0 1,-1 1,0 1,0 0,-1 0,-1 0,-1 0,0 0,0 0,0 0,0 0,0 -1,0 0,0 1,0 1,0 0,0 0,0 -1,1l0 0c0,0 0,0 0,0l-1 0 0 0c0,0 0,0 0,0 0,0 0,0 0,0 0,0 0,0 0,0l0 0c0,0 0,0 -1,0l0 0 0 0 0 0 0 0c0,0 0,0 0,0 0,-1 0,-1 0,-1 0,0 0,0 0,0 0,0 0,0 0,0 0,0 0,0 0,0l0 0 0 0 0 0 0 0c0,0 0,-1 0,-1 0,0 0,0 0,0 0,0 0,0 0,0 -1,0 -1,-1 -1,-2 0,0 1,-1 2,-1 0,0 0,0 1,0 0,0 0,0 0,0 -1,-1 -1,-1 -1,-1l-1 0 0 0 1 0 0 0 0 0c0,-1 0,-1 0,-1 0,0 0,-1 0,-1 0,0 0,0 -1,0l0 0 0 0 0 0 0 0 0 0 0 0c0,0 1,0 1,-1 0,0 -1,-1 -1,-1l-1 -1 0 0 0 0 1 0c0,0 0,0 0,0 0,0 1,1 1,1 0,0 1,0 1,0 0,0 0,0 0,0 0,0 0,0 0,0 0,0 0,0 0,0 0,0 0,0 0,0l0 0c0,0 0,0 0,0 0,0 0,0 0,0l0 0c0,0 0,0 0,0l0 -1 0 0 -1 0 1 0 0 0 0 0c0,0 1,1 1,1 0,0 0,0 1,1l0 0c0,0 0,0 0,0 0,0 0,0 0,-1 -1,0 -1,0 -1,0l1 -1 0 1c0,0 0,0 0,0 0,0 0,0 0,0l0 0 1 0c0,0 0,0 -1,0 0,0 0,0 0,-1l0 0 1 0c0,0 0,0 0,1 0,0 1,0 1,0 0,0 0,0 0,0 0,0 0,0 1,0 0,0 0,0 0,0 0,0 0,0 0,0 0,0 0,0 0,0 0,0 0,0 1,0 0,0 0,0 0,0 0,0 0,0 0,-1l-1 0 1 0c0,0 0,1 0,1 0,0 0,0 0,0 1,0 1,1 0,1l0 0c0,0 0,0 0,0 0,0 1,0 1,0 0,0 0,0 0,0 0,0 0,0 0,0l0 0 0 0 0 -1 0 1c1,0 0,0 0,0 0,1 -1,1 -1,0 0,0 0,0 0,0zm-7 6c0,0 0,0 0,0 0,0 0,0 0,0 0,0 0,0 0,0 0,0 0,-1 0,-1 0,0 0,0 0,0l0 0c0,0 0,0 0,0 0,0 0,0 -1,0l0 0c0,1 0,1 0,1 0,0 0,0 0,0 0,0 0,0 0,0 0,0 0,0 0,0 0,0 0,0 0,0 1,0 1,0 1,0zm5 2c0,0 0,0 0,0 0,0 0,-1 0,-1 0,0 0,0 0,0 0,0 0,0 0,0 0,0 0,0 0,0 0,0 0,0 0,0 0,0 0,0 0,0 0,0 0,0 0,0l0 1c0,0 0,0 0,0l0 0 0 0zm2 -8l0 1c0,0 0,0 0,0 0,0 0,0 0,0 0,0 0,-1 0,-1l0 0c0,0 0,0 0,0zm-1 0l0 0c0,0 0,0 0,0l0 0zm0 0c0,0 0,0 0,0 0,0 0,0 0,0l0 0c0,0 0,0 0,0l0 0 0 0zm0 0l0 0c0,0 0,0 0,0 0,0 0,0 0,0zm-2 3c0,0 0,0 0,0 0,0 0,0 0,0 0,0 -1,0 -1,0 0,0 1,1 1,1 0,0 0,0 0,0l0 0 0 0c0,0 1,0 1,0 0,0 0,0 0,0 0,0 0,0 0,0l-1 0 0 -1c0,0 1,0 1,0 0,0 0,0 0,0 0,0 0,0 0,0 -1,0 -1,0 -1,0l0 0 0 0zm3 -3c0,0 0,0 0,0 0,0 0,0 0,0 0,0 0,0 0,0l0 0zm-5 7c0,0 0,0 0,0 0,0 0,0 0,0l0 0c0,0 0,-1 0,-1 0,0 0,0 0,0 0,0 0,0 0,0 -1,1 -1,1 -1,1 0,0 0,0 0,0l0 0c0,0 0,0 0,0l1 0c0,0 0,0 0,0l0 0c0,0 0,0 0,0zm1 1l0 0 0 0 0 0c0,0 0,0 0,0 0,0 0,0 0,0 0,0 0,0 0,-1l0 0c0,0 0,0 0,1l0 0c0,0 0,0 0,0zm0 1c0,0 0,0 0,0l0 0c0,0 0,0 0,0l0 0 0 0 0 0 -1 0c0,0 0,0 0,0 0,0 0,0 0,0 0,0 0,0 0,0l0 1 0 0c0,0 0,0 1,0 0,0 0,0 0,0 0,0 0,0 0,0 0,-1 0,-1 0,-1l0 0 0 0zm0 0l0 0 0 0c0,0 0,0 0,0 1,0 1,0 1,0 0,0 0,0 1,0l0 0c0,0 -1,0 -1,0 0,0 0,0 0,0 0,0 0,0 0,0 0,0 0,0 0,0 0,0 0,0 0,0 0,0 0,0 0,0 0,0 0,0 0,0 -1,0 -1,0 -1,0zm-3 0c0,0 0,0 0,0 0,0 0,0 0,0l0 0zm6 0c0,0 0,0 0,0 0,0 0,0 0,0l0 0zm-1 -1c0,0 0,0 0,0l0 0c1,0 1,0 1,0 0,0 0,0 0,0 0,0 0,0 0,0 0,0 0,0 -1,0zm0 -1c-1,0 -1,0 -1,0 0,0 0,0 0,-1 0,0 0,1 0,1 0,0 0,0 0,0 0,0 0,0 0,0 0,0 0,1 0,1 0,0 0,0 0,0 0,0 0,0 0,0 0,0 1,0 1,0l0 -1c0,0 0,0 0,0zm-2 -6c1,-1 1,-1 1,-1 0,0 0,0 0,0 0,0 0,0 -1,0 0,0 0,0 0,0 0,0 0,0 0,0l0 0c0,0 0,0 0,0 0,0 0,0 0,0 0,0 0,0 0,1zm1 0c0,0 0,0 0,0 0,0 0,0 0,0 0,0 0,0 0,0 0,0 0,0 0,0zm3 2c0,1 0,1 0,1l0 0c0,0 0,0 0,0 0,0 0,0 0,0 0,0 0,0 0,0 0,0 0,-1 0,-1 0,0 0,0 0,0z"/>
     <g>
      <path class="fil45" d="M200 80c0,0 0,0 0,0 0,0 0,0 0,1 0,0 1,0 1,0 0,0 0,-1 -1,-1 0,0 0,0 0,0 0,0 0,0 0,0 0,0 0,0 1,0 0,0 0,0 0,0 0,0 0,-1 0,-1 -1,0 -1,0 -1,0 0,0 0,0 0,0 0,0 0,0 1,0 0,-1 -1,-1 -1,-1 0,0 -1,0 -1,0 0,0 0,0 0,0l0 0c0,0 0,0 0,0 1,0 1,0 1,0 0,0 0,0 -1,0 0,0 0,0 0,0 0,0 0,0 0,0 0,0 0,0 0,0 0,0 0,0 0,0 0,-1 0,-1 0,-1 0,0 0,1 0,1 0,0 0,-1 0,-1 0,0 0,0 0,0 0,0 0,0 0,0 0,0 0,0 0,0 0,0 1,0 1,0 0,0 0,0 0,0 0,0 0,0 0,0 0,0 0,0 0,0 0,0 0,1 0,1 0,-1 0,-1 0,-1 1,0 1,0 1,0 0,0 -1,0 -1,0 0,0 0,0 0,0 0,0 0,0 0,0l0 0c0,0 0,0 0,0 0,0 0,0 0,0 0,0 0,0 0,0 0,0 0,0 0,0 0,0 0,0 0,0 0,0 0,0 0,0l0 0c0,0 0,0 0,0l0 0 -1 0c0,0 0,0 0,0 0,0 0,0 0,0 0,0 0,0 0,0 0,0 0,0 0,0 0,0 0,0 0,-1l0 0 0 0c0,0 0,0 0,0 0,0 0,0 0,0 1,0 1,0 1,0 0,0 0,0 0,0 0,0 0,0 0,0 0,0 0,0 0,0 0,0 0,0 0,0 0,0 0,0 0,-1 0,0 0,0 0,1 0,0 0,-1 0,-1 0,0 0,0 0,0 0,0 0,0 0,0 0,0 0,0 0,0 0,0 0,0 0,0 1,0 1,0 1,0 0,0 0,0 0,0 0,0 0,0 0,0 0,0 0,0 0,0 0,0 0,0 0,1 0,-1 0,-1 0,-1 0,0 0,0 0,0 0,0 0,0 0,-1 0,1 0,1 0,1 0,0 0,0 0,0 0,0 0,0 0,0 0,0 0,0 0,0l0 0c-1,0 -1,0 -1,0 0,0 0,0 0,0 -1,0 -1,0 -1,0 0,0 0,0 0,0 0,0 0,0 0,0l0 0c0,1 0,1 0,0 -1,0 -1,0 -1,0 0,0 0,0 0,0 -1,0 -1,0 -1,0 0,0 0,0 0,0 -1,0 0,0 0,0 0,0 0,0 1,1 0,0 0,0 0,0 0,0 0,0 0,0 -1,0 -1,-1 -1,0 0,0 0,0 0,0 0,0 1,0 1,0 0,0 0,0 0,0 0,0 0,0 0,0 0,0 0,1 0,1 0,0 0,0 0,0 0,0 0,0 0,0 0,0 0,0 0,0 0,0 0,0 0,0 0,0 0,0 0,0 0,1 0,1 1,1 0,1 0,1 0,1 0,0 0,0 0,0 0,0 0,0 0,0 0,0 0,0 0,0 0,0 0,0 0,0 0,0 0,0 0,1 0,0 0,0 0,0 0,0 0,0 0,0 0,0 0,0 0,0l0 0c0,0 0,0 0,0 0,0 0,0 0,0 0,0 0,0 0,0 0,0 0,0 0,0 0,0 0,0 0,0 0,0 0,0 0,0 0,0 0,0 0,0 0,0 0,1 0,1 0,0 0,0 0,0 0,0 0,0 0,-1 0,0 0,0 -1,0l0 0c0,0 0,0 0,0 1,1 1,1 1,1 0,0 0,0 0,0 0,0 -1,0 -1,0 0,0 0,0 1,0 0,0 0,0 0,0 0,0 -1,-1 -1,-1 0,0 0,0 0,0 -1,0 -1,-1 -1,-1 0,0 0,0 1,0 0,0 0,0 0,0 0,0 0,-1 0,-1l-1 -1 0 0c0,0 0,0 0,0 0,0 -1,-1 -1,-1l0 0c0,0 0,0 0,0l0 0c-1,0 -1,-1 -1,-1 0,0 -1,0 -1,0 0,0 -1,0 -1,0 0,0 0,0 0,0l0 0c0,0 1,0 1,0 0,0 1,0 1,1l0 0c0,0 0,0 0,0l1 0c0,0 0,1 1,1 0,1 0,1 1,1 0,0 0,0 0,0 0,1 0,0 -1,0 0,0 0,0 0,1 0,-1 -1,-1 -1,-2 -1,0 -2,0 -2,0 0,0 0,0 0,0 0,0 0,0 0,0 0,0 0,0 0,0 0,0 0,0 0,0 1,0 1,0 2,1 0,0 1,0 1,1 0,0 0,0 0,0 0,0 0,0 0,0 0,-1 0,-1 0,-1 0,0 0,0 0,0 -1,0 -2,-1 -2,-1 -1,0 -1,0 -1,0 0,0 0,0 0,1 0,0 0,1 0,1 0,0 0,0 0,0l1 0c0,0 0,0 1,0 0,0 1,0 1,0 0,0 0,0 0,0 0,0 0,0 0,0 0,0 0,0 0,0 -1,0 -2,0 -3,0 0,0 0,0 0,0 0,0 1,0 2,0 0,0 1,0 1,0 0,0 0,0 0,0 0,0 0,0 0,0 -1,0 -2,0 -2,0 -1,0 -1,0 -1,0 0,0 1,0 1,1 0,0 0,0 0,0 0,0 0,0 0,0 1,0 1,0 1,-1 0,0 1,0 1,0 0,0 0,0 0,0 0,0 0,0 -1,0 0,0 -1,1 -1,1 0,0 1,0 1,0 0,0 1,-1 1,-1 0,0 0,0 0,0 0,1 0,0 0,1 -1,0 -1,0 -2,0 0,0 1,0 1,1 0,0 0,0 0,0 0,0 0,0 0,0 1,-1 1,-1 1,-1 0,0 0,0 0,0 0,0 0,0 0,0l0 0c0,0 -1,1 -1,1 1,0 1,0 1,-1 0,0 0,0 0,0l0 0c0,0 0,0 0,0 0,0 0,0 0,0 0,0 0,0 0,0 0,1 -1,1 -1,1 1,0 1,0 1,0 0,0 1,0 1,0 0,0 0,0 0,0 0,0 -1,0 -1,0 0,0 0,0 0,0 0,0 0,0 0,0 0,0 -1,0 -1,0 0,0 0,0 0,0 0,0 0,0 0,0 0,-1 -1,-1 -1,-1 0,0 -1,0 -1,0 -1,0 -1,1 -2,1 0,1 0,2 1,2 0,0 0,0 1,0 0,0 0,0 0,0 0,0 0,0 0,0 -1,0 0,0 -1,0 0,0 0,0 0,0l0 0c0,0 0,0 0,0 0,0 0,0 0,0 0,0 0,0 0,0 0,-1 0,-1 0,-1 0,0 0,0 0,0 0,0 0,0 0,0 0,0 0,0 0,0 0,0 0,0 0,0 0,0 0,0 0,0 0,0 0,0 0,0 0,0 0,0 0,0 0,-1 0,-1 0,-1 0,0 0,0 0,0 0,1 0,0 0,1 0,0 0,0 0,0 0,0 0,0 0,0 0,0 0,0 0,0 0,0 0,0 0,0 0,0 0,0 0,0 0,0 0,0 -1,0 0,0 0,0 0,0 1,0 1,0 1,0 0,0 0,0 0,0 0,0 0,0 0,0 0,0 0,0 0,-1 0,0 0,0 0,0 0,0 0,0 0,1 0,0 0,0 0,-1 0,0 0,0 0,0 0,0 0,0 0,0 0,0 0,0 0,0 0,1 0,0 0,0 0,0 0,0 0,0 0,0 0,0 0,0 0,0 0,0 0,0l0 0c0,0 0,0 0,0 0,0 0,0 0,0 0,0 0,0 1,0 -1,0 0,-1 0,0l0 0c0,0 0,0 0,0 0,0 0,0 0,0 0,0 0,0 0,0 0,0 0,0 0,0 0,0 0,-1 0,0 0,0 0,0 0,0 0,0 0,0 0,0 0,0 0,0 1,0 0,0 0,-1 0,0 0,0 0,0 0,0 0,0 0,0 0,0 -1,0 -1,0 0,0l0 0c0,0 0,0 0,0 0,0 0,0 0,0 -1,1 -1,2 -1,1 0,0 0,0 0,0 0,0 0,0 0,0 0,1 0,0 0,1l0 0c0,0 0,0 0,0l0 0c0,0 0,0 0,0 0,0 0,0 0,0 0,0 0,0 0,0 0,0 0,0 0,0 0,0 0,0 -1,0 0,0 0,0 0,0 0,0 0,0 0,1 0,0 0,0 0,0 1,0 0,-1 1,0l0 0c0,0 0,0 0,0 0,0 0,0 0,0 0,0 0,0 0,0 0,0 0,0 0,0 0,0 0,0 0,0 0,0 0,0 0,0 0,0 -1,0 -1,0 0,0 0,0 1,0 0,0 0,0 0,0 0,0 0,0 0,0 0,0 0,0 0,0 0,0 0,0 0,0 0,0 0,0 0,0 0,0 0,0 0,0 0,0 0,0 0,0 0,0 0,0 0,0 0,0 0,0 0,0 0,0 0,1 0,1 0,0 1,0 1,0 0,0 -1,0 -1,-1 0,0 0,0 1,0 0,0 0,0 0,0 0,0 0,0 0,0 -1,0 -1,0 -1,0 0,0 0,0 0,0l0 0c0,0 0,0 1,0 0,0 0,0 0,0 0,0 0,0 0,0 0,0 0,0 0,0 0,0 0,0 0,0 0,0 0,0 0,0 0,0 0,0 0,0 0,0 0,0 0,0l0 0c0,-1 0,0 -1,0 0,-1 0,-1 0,-1 1,0 1,0 1,-1 0,0 0,0 1,0 0,0 0,0 0,0 0,0 0,0 0,0 0,0 0,0 0,0 0,0 0,0 0,0 0,0 0,0 0,0 1,0 1,0 1,0 0,0 0,0 0,0 0,0 0,-1 0,-1 0,0 0,0 0,0 0,1 0,1 0,1 0,0 0,0 0,0 0,-1 0,-1 0,-1 0,1 0,1 0,1 0,0 0,0 0,0 0,0 0,0 0,0 0,0 1,1 1,0 0,0 0,0 0,0 0,0 0,0 0,0 0,0 0,0 0,0 0,0 0,0 0,0 0,0 0,0 0,0 0,0 0,0 0,0 0,0 0,0 1,0 0,0 0,0 0,0 0,0 0,0 0,0 0,0 0,0 0,0 -1,0 -1,0 -1,-1 0,1 0,1 1,1 0,0 0,0 0,0 0,0 0,0 0,0 0,0 0,0 0,0 0,0 0,0 0,0 0,0 0,0 0,0 0,1 0,1 0,1 0,0 0,-1 0,-1 0,0 0,0 0,0 0,0 0,1 0,1 0,0 0,0 0,0 1,0 1,0 1,0 0,0 0,0 0,0 0,0 0,0 0,0 0,0 0,0 0,1 0,0 0,0 0,0 0,0 0,0 0,0 0,0 0,0 0,0 0,0 0,0 0,0 0,0 0,0 0,0 0,0 0,0 0,0 0,0 0,1 0,1 0,0 0,0 0,0 0,0 0,0 0,0 0,0 0,-1 0,-1 0,0 0,0 0,0 0,0 0,0 0,0 0,0 1,0 1,0 0,0 0,0 0,0 0,0 0,0 0,0 0,0 0,0 0,1 0,0 0,0 0,0 0,0 0,0 0,0 0,0 0,0 0,0 0,-1 0,-1 0,-1 -1,-1 0,-1 -1,-1l0 0c0,0 0,-1 0,-1 0,0 0,0 0,0 0,0 0,0 0,0 0,0 0,0 0,0 0,0 0,0 0,0 0,0 0,0 0,0 0,0 0,0 0,-1 0,0 0,0 0,0 0,0 -1,0 -1,0 0,0 0,0 0,0 0,0 1,0 1,0 0,0 0,0 0,0 0,1 0,1 0,1 1,0 1,-1 1,-1 -1,0 -1,-1 -1,-1 0,0 0,0 0,0zm0 -1c0,0 0,0 0,1 0,0 0,-1 0,-1 0,0 0,0 0,0 0,0 0,0 0,0 0,0 0,0 0,0zm-1 -2c0,0 0,0 0,0 0,0 0,0 0,0 0,0 0,0 0,-1 0,0 0,0 0,0 0,0 0,0 0,0 0,0 0,0 0,0 0,1 -1,1 0,1 0,0 0,0 0,0zm0 1c0,0 0,0 0,0 0,0 0,0 0,0 0,0 0,0 0,0 0,0 0,0 0,0zm1 2c0,0 0,1 0,1 0,0 -1,0 -1,0 0,0 0,0 1,0 0,0 0,0 0,0 0,0 0,-1 0,-1zm-1 -4c0,0 0,-1 1,-1 0,0 0,0 0,0 0,0 0,0 0,0 0,0 0,0 0,0 0,0 0,0 0,0 0,0 -1,0 -1,0 0,0 0,0 0,0 0,1 0,0 0,1zm-1 1c0,0 1,0 1,0 0,0 -1,1 0,1 0,-1 0,-1 -1,-1zm1 1c0,0 0,0 0,0 0,0 0,0 0,0 0,0 0,0 0,0 0,0 0,0 0,0 0,0 0,0 0,0zm-4 4c0,0 0,-1 1,-1 0,0 0,0 0,0 0,0 -1,0 -1,1 0,0 0,0 0,0 0,0 0,0 0,0zm0 0c0,0 0,0 0,0 0,0 0,0 0,0 0,-1 0,0 0,0 0,0 0,0 0,0zm0 0c0,0 0,0 0,0 0,0 0,1 0,0 0,0 0,0 0,0 0,0 0,0 0,0zm1 -1c-1,0 -1,0 -1,0 0,0 0,0 0,0 0,0 0,0 0,0 0,0 0,0 1,0zm3 -6c0,0 1,0 1,0 0,0 0,0 0,0 0,0 0,0 -1,0zm-5 4c0,0 0,0 0,0 0,0 0,0 0,0zm0 0c0,0 0,0 0,0 0,0 0,0 0,0zm-1 -4c0,0 0,0 0,0l0 0zm0 0c0,0 0,0 0,0 0,0 0,0 0,0z"/>
      <path class="fil45" d="M193 77c1,0 1,0 1,0 1,0 2,0 3,1 0,0 0,0 0,0 0,0 0,0 0,0l0 0c0,0 0,-1 0,-1 -1,-1 -2,-1 -3,-2 0,0 -1,0 -1,0 0,0 1,1 1,1 0,1 0,1 -1,1zm4 1c0,0 0,0 0,0 0,0 0,0 0,0 0,0 0,0 0,0z"/>
      <path class="fil45" d="M197 86c0,0 1,0 2,0l0 0c0,0 0,0 -1,0 0,0 -1,0 -2,0 0,0 0,0 0,0 0,0 0,0 0,0 0,0 0,0 0,0 0,0 0,0 0,0 0,0 0,0 0,0 0,-1 0,0 0,0 0,0 0,0 0,0 0,-1 0,-1 0,-1 0,0 0,0 0,0 0,0 0,0 0,0 0,0 0,0 0,0l0 0c0,0 0,0 0,0 0,0 0,0 0,0 0,0 0,0 0,0l0 0c0,0 0,0 0,0 0,0 0,0 0,0 0,0 0,0 0,0 0,0 0,0 0,0 0,0 0,0 0,0 0,0 0,0 0,0 0,0 0,0 0,0 0,0 0,0 0,0 0,0 0,0 0,0 0,0 0,0 0,0 0,0 0,0 0,0 0,0 0,0 0,0 0,0 0,0 0,0 0,0 0,0 1,0 0,0 -1,0 -1,0 0,0 0,0 0,0 0,0 0,0 0,0 1,0 1,0 1,0 0,0 0,0 0,0 -1,0 -1,0 -1,0 0,0 1,0 1,0 0,0 0,0 0,0 0,0 0,-1 0,-1 0,0 0,0 -1,0 1,0 1,0 1,0 0,0 0,0 0,0 0,0 0,0 0,0 0,0 0,0 0,0 -1,0 -1,0 -1,0 0,0 1,0 1,0 0,0 0,0 0,0 0,0 0,0 -1,0 0,0 0,0 0,0 0,0 0,0 0,0 0,0 0,0 1,0 0,0 -1,-1 -1,-1 0,0 0,1 0,1 0,-1 0,-1 0,-1 0,0 0,0 0,0 0,0 0,0 -1,0 0,0 1,0 1,0l0 0c-1,0 -1,0 -1,0 0,0 0,0 0,0 0,0 0,0 0,0 0,0 0,0 0,0 0,0 0,0 0,0 0,0 0,0 0,0 0,0 0,0 0,0 0,0 0,0 0,0 -1,0 0,0 0,0 0,0 0,0 -1,0 0,0 0,0 0,0 0,0 0,0 0,1 0,0 1,0 1,0 0,0 0,0 0,0 0,0 0,0 0,0 0,0 0,0 0,0 1,0 1,0 1,0 0,0 0,0 0,0 0,0 0,1 0,1 0,0 0,0 -1,0 0,0 0,0 0,0 0,0 0,1 0,1 0,0 1,0 1,0 0,0 0,0 1,0z"/>
      <path class="fil45" d="M202 79c0,0 0,0 0,0 0,0 -1,0 -1,0 0,0 0,0 0,0 0,0 0,0 0,0 0,0 0,0 0,0 0,0 0,0 0,0 1,0 1,1 0,2 0,0 0,0 0,0 0,0 0,0 0,0 0,0 0,0 0,1 0,0 0,0 0,0 0,0 0,0 0,-1 0,0 0,0 0,1 0,0 0,0 0,0 0,0 0,-1 0,-1 0,0 0,0 0,0 0,0 0,0 0,0 0,1 0,1 0,1 0,0 0,0 0,0 0,0 0,0 0,0 0,-1 0,-1 0,-1 0,0 0,0 0,0 0,0 0,0 0,0 1,0 0,0 0,0 1,0 0,0 1,0 0,0 0,0 0,0l0 0c0,0 0,0 0,0 0,-1 0,-1 0,-1 0,0 0,0 0,0 0,0 0,0 0,0 0,0 0,0 0,0 0,0 0,0 0,0l0 0c1,0 1,0 0,0 0,0 0,0 0,0 0,0 0,0 0,-1 0,0 0,0 0,0 0,0 0,0 0,0 0,0 0,0 0,0 0,0 0,0 0,0 0,0 0,0 0,0 0,0 0,0 0,0 0,0 0,0 0,0 0,0 0,0 0,1 0,0 0,-1 0,-1 0,0 -1,0 0,0 0,-1 0,0 0,0 0,0 0,-1 0,-1 0,0 0,0 0,0 0,0 0,0 0,0 0,0 -1,0 -1,0 0,0 0,0 0,0 0,0 0,1 0,1 0,0 0,0 0,0 1,0 1,0 1,0z"/>
      <path class="fil45" d="M196 82c0,0 0,0 0,1 0,0 1,0 1,0 0,0 0,0 0,0 0,0 0,0 0,0 -1,0 -1,0 -1,0 1,0 1,0 1,0 0,0 0,0 0,0 0,0 0,0 0,0 0,0 0,0 0,0 0,0 0,0 0,0 0,0 0,0 0,0 0,0 0,1 0,1 0,0 1,0 1,0 0,0 0,0 0,0 0,0 0,0 0,0 0,0 0,0 0,0 0,0 -1,0 -1,0 0,0 0,0 0,0 0,0 0,0 0,0 0,1 0,1 1,1 0,-1 0,-1 0,-1 0,0 0,0 0,0 0,1 0,1 0,1 0,0 0,0 0,0 0,0 0,0 0,0 0,0 0,0 0,0 1,0 1,0 1,0 0,0 0,0 0,0 0,0 0,0 0,0 0,-1 0,-1 0,-1 -1,0 -1,0 -1,0 0,0 0,0 0,0 1,0 1,0 1,0 0,0 0,0 0,0 0,0 0,0 -1,0 0,0 0,-1 0,-1 0,0 -1,0 -1,0 0,0 1,-1 0,-1 0,0 0,0 0,0 0,0 0,0 0,0 0,0 0,0 0,0 0,0 0,0 -1,0z"/>
      <path class="fil45" d="M195 75c0,0 0,0 0,0zm0 0l0 0c0,0 0,0 0,0zm0 0l0 0c0,0 0,0 0,0zm0 0l0 0zm0 0l0 0c0,0 0,0 0,0zm0 1c1,0 1,0 1,0 0,0 1,1 1,1l0 0c0,0 0,0 0,0 0,0 0,0 0,0 0,0 0,0 0,0l0 -1c0,0 0,0 -1,0 0,0 0,0 0,0 0,0 0,0 0,0 0,0 0,0 0,0l0 0c0,-1 0,-1 0,-1 0,0 -1,0 -1,0 0,0 0,0 0,0 0,0 0,0 0,0 0,0 0,0 0,1zm2 1c0,0 0,0 0,0 0,0 0,0 0,0z"/>
      <path class="fil45" d="M199 86l0 0c0,0 0,0 0,0 0,0 0,0 0,0 -1,0 -1,0 -1,0 0,0 0,0 0,0 0,0 0,1 0,1 0,0 0,0 0,0 0,-1 1,-1 1,-1 0,0 0,0 0,0 0,0 -1,-1 -1,-1 0,0 -1,0 -1,0 0,0 0,0 0,0 0,0 0,0 0,0 0,1 0,1 1,1 0,0 0,0 0,0 0,0 0,0 1,0z"/>
      <path class="fil45" d="M195 74c0,0 0,0 0,0zm3 5c0,-1 0,-1 0,-2 -1,0 -1,-1 -1,-1 0,0 0,0 0,0 -1,-1 -1,-1 -1,-1 0,0 -1,-1 -1,-1 0,0 0,1 0,1 1,0 1,0 1,0l0 1c0,0 1,0 1,0l0 1c0,0 0,0 0,0 1,1 0,0 1,1 0,0 0,0 0,1z"/>
      <path class="fil45" d="M202 76c0,0 0,0 0,0 0,0 0,0 0,0 0,0 0,0 0,0 0,0 -1,0 -1,0 0,0 0,0 -1,0 0,0 0,0 0,0 -1,0 -1,0 -1,1 0,0 0,0 0,0 0,0 0,0 0,0 0,0 0,-1 1,-1 0,0 0,0 0,0 1,0 1,0 1,0 0,0 1,0 1,0 0,0 0,0 0,0 0,0 0,0 0,0 0,0 0,0 0,0z"/>
      <path class="fil45" d="M198 75c0,0 0,0 0,0 0,0 0,0 0,0 0,0 0,0 0,0 0,0 0,0 0,0 0,0 0,0 1,0 0,0 0,0 0,0l0 0c0,0 0,0 0,0 -1,0 -1,0 -1,0 0,0 0,-1 0,-1 0,0 0,0 0,1 0,0 0,0 0,0 0,0 0,0 0,0z"/>
      <path class="fil45" d="M201 84c0,0 0,0 0,0 0,0 0,0 0,0 0,0 0,0 0,0 0,0 0,0 0,0 0,0 0,0 0,0 0,-1 0,-1 0,-1 0,0 0,1 0,1 0,0 0,0 0,0z"/>
      <path class="fil45" d="M202 81c0,0 0,0 0,0l0 0c0,0 0,0 1,0 0,0 0,0 0,0 0,0 0,0 -1,0 0,0 0,-1 0,-1 0,0 0,0 0,1 0,0 0,0 0,0z"/>
      <path class="fil45" d="M195 84l0 0 0 0zm0 0c0,0 0,0 0,0 0,0 0,0 -1,0 0,0 1,0 1,1 0,0 0,0 0,0 0,0 0,-1 0,-1 0,0 0,0 0,0z"/>
      <path class="fil45" d="M201 78l0 0c0,0 0,0 1,0 0,0 -1,0 0,0 0,0 0,0 0,0 0,0 0,0 0,0 0,0 0,0 0,0 0,0 -1,0 -1,0zm0 0l0 0c0,0 0,0 0,0z"/>
      <path class="fil45" d="M202 79c0,0 0,0 0,0 0,-1 0,-1 0,0 0,0 0,0 0,0 0,0 0,0 0,0 0,0 0,0 0,0 0,-1 0,-1 1,0l0 0c0,-1 -1,-1 -1,0 0,0 0,0 0,0zm1 0c0,0 0,0 0,0 0,0 0,0 0,0 0,0 0,0 0,0z"/>
      <path class="fil45" d="M195 84c0,0 0,0 0,0 0,0 0,0 0,0 0,0 0,0 0,0 0,0 0,0 0,0 0,0 0,0 0,0 0,0 0,0 0,0 0,0 0,0 0,0 0,0 0,0 0,0 0,0 0,0 0,0z"/>
      <path class="fil45" d="M198 84c0,0 0,0 1,0 0,0 0,1 0,1 0,0 0,0 0,-1 0,0 0,0 0,0 0,0 0,0 0,0 0,0 -1,0 -1,0 0,0 0,0 0,0z"/>
      <path class="fil45" d="M201 85c0,0 0,0 0,0 0,0 0,0 0,0 0,0 0,0 0,0 0,0 0,0 0,0 0,0 0,0 0,0 0,0 0,0 0,0 0,0 0,0 0,0z"/>
      <path class="fil45" d="M199 83c0,0 0,0 0,0 0,0 0,0 0,0 0,0 0,0 0,0 0,-1 0,-1 0,0 0,0 0,0 0,0z"/>
      <path class="fil45" d="M199 85c0,0 0,0 0,0 0,0 0,0 0,0l0 0zm0 0c0,0 0,0 0,0 0,0 0,0 0,0 0,0 0,0 0,0 0,0 0,0 0,0 0,0 0,0 0,0 0,0 0,0 0,0l0 0c0,0 0,0 0,0l0 0c0,0 0,0 0,0z"/>
      <path class="fil45" d="M202 84c0,0 0,0 0,0 0,-1 -1,-1 -1,0 0,0 0,0 0,0 0,0 0,0 1,0 0,0 0,0 0,0l0 0c0,0 0,0 0,-1 0,1 0,0 0,1zm0 0l0 0z"/>
      <path class="fil45" d="M199 84l0 0c0,0 0,0 0,0 0,0 0,0 0,0 0,0 0,0 0,0 0,0 0,0 0,0 0,1 0,1 0,1 0,0 0,0 0,0 0,-1 0,-1 0,-1zm0 1l0 0c0,0 0,0 0,0 0,0 0,0 0,0z"/>
      <path class="fil45" d="M201 79l0 0c0,0 0,0 0,0 0,0 0,0 0,0l0 0c0,0 0,0 0,0 0,0 0,0 0,0 0,0 0,-1 0,-1 0,0 0,1 0,1 0,0 0,0 0,0z"/>
      <path class="fil45" d="M199 84c0,0 1,0 1,0 0,0 0,0 0,-1 0,0 -1,1 -1,0 0,0 0,0 1,0 0,0 0,0 0,0 0,0 -1,1 -1,1z"/>
      <path class="fil45" d="M200 85c0,0 0,0 0,0l0 0c0,0 0,0 0,0 0,0 0,0 0,0 0,0 0,0 0,0 0,0 0,0 0,0 0,0 0,0 0,0 0,0 0,0 0,0zm0 0l0 0c0,0 0,0 0,0z"/>
      <path class="fil45" d="M193 85c1,0 1,0 1,0 0,0 0,0 0,0 0,-1 0,-1 0,-1 0,0 0,0 0,0 0,0 0,0 0,0 0,1 -1,1 -1,1 0,0 0,0 0,0zm1 -1c0,0 0,0 0,0 0,1 0,1 0,1l0 0c0,0 0,0 0,0 0,-1 0,-1 0,-1zm0 0l0 0c0,0 0,0 0,0z"/>
      <path class="fil45" d="M193 82c0,0 0,0 0,0 0,0 0,0 0,0 0,0 0,1 1,1 0,0 0,-1 0,-1 -1,0 -1,0 -1,0z"/>
      <path class="fil45" d="M197 84c0,0 0,0 0,0 0,0 0,0 0,0zm0 0c0,0 0,0 0,0 0,0 0,0 0,0l0 0c0,0 0,0 0,0zm0 0c0,0 0,0 0,1l0 0c0,-1 0,-1 0,-1 0,0 0,0 0,0 0,0 0,0 0,0z"/>
      <path class="fil45" d="M200 80c0,0 0,0 0,0 0,0 0,0 0,0z"/>
      <path class="fil45" d="M193 84c0,0 0,0 0,0 0,0 0,-1 0,-1 0,0 0,0 0,0 0,0 0,0 0,0 0,0 0,0 0,0l0 0c0,0 0,0 0,1z"/>
      <path class="fil45" d="M196 83c0,0 0,0 0,0 1,0 1,0 1,0 -1,0 -1,0 -1,0z"/>
      <path class="fil45" d="M200 77c1,0 1,0 1,0 0,0 0,0 0,0 0,0 0,0 0,0 0,0 0,0 0,0 0,0 0,0 0,0 0,0 0,0 -1,0z"/>
      <path class="fil45" d="M200 79l0 0 0 0c0,0 0,-1 -1,-1 1,0 1,1 1,1z"/>
      <path class="fil45" d="M200 79c0,0 0,0 0,0 0,0 0,0 0,0z"/>
      <path class="fil45" d="M201 76c0,0 0,0 0,0 0,0 0,-1 0,-1l0 0c0,1 0,1 0,1z"/>
      <path class="fil45" d="M199 78l0 0c0,0 0,0 0,0 0,0 0,0 0,0z"/>
      <path class="fil45" d="M200 81c0,0 0,0 0,0l0 0c0,0 -1,0 -1,0 1,0 1,0 1,0z"/>
      <path class="fil45" d="M198 79c0,0 0,0 1,0 0,0 0,-1 -1,-1 0,0 0,1 0,1z"/>
      <path class="fil45" d="M200 75c0,1 0,1 0,1l0 0c0,0 0,0 0,0l0 -1c0,0 0,0 0,0z"/>
      <path class="fil45" d="M198 78l0 0 0 0 0 0c0,0 0,0 0,0z"/>
      <path class="fil45" d="M200 76c0,0 0,0 0,0 0,0 0,0 0,0 0,0 0,0 0,0zm0 0c0,0 0,0 0,0 0,0 0,0 0,0 0,0 0,0 0,0z"/>
      <path class="fil45" d="M200 77l0 0c0,0 0,0 0,0l0 0z"/>
      <path class="fil45" d="M200 77l0 0 0 -1 0 1c0,0 0,0 0,0 0,0 0,0 0,0z"/>
      <path class="fil45" d="M199 84c0,0 0,0 0,0 0,0 0,0 0,0l0 0z"/>
      <path class="fil45" d="M193 82c0,0 1,0 1,0 0,0 0,0 -1,0l0 0z"/>
      <path class="fil45" d="M199 77c0,0 0,0 -1,0 0,0 1,0 1,0z"/>
      <path class="fil45" d="M199 78l0 0c0,0 0,0 0,0zm0 0c0,0 0,0 0,0 0,0 0,0 0,0 0,0 0,0 0,0z"/>
     </g>
     <g>
      <g>
       <polygon class="fil44" points="189,81 189,81 189,81 189,81 189,81 189,81 188,81 188,81 189,80 189,80 189,80 189,80 189,80 188,80 188,80 189,80 189,80 189,80 "/>
       <path class="fil44" d="M190 81l0 0 0 0 -1 0 0 -1 1 0 0 0 0 0 0 1zm0 0l0 -1 0 0 0 1 0 0z"/>
      </g>
      <g>
       <polygon class="fil44" points="206,81 205,81 205,81 205,81 206,81 206,81 205,81 205,81 205,80 205,80 205,80 205,80 205,80 205,80 205,80 205,80 205,80 206,80 "/>
       <polygon class="fil44" points="207,81 207,81 206,81 206,81 206,81 206,81 206,81 206,81 206,81 206,81 206,80 206,80 206,80 206,80 206,80 206,80 206,80 206,80 207,80 207,80 207,80 207,81 207,81 "/>
      </g>
     </g>
     <path class="fil44" d="M189 77l0 0c0,0 0,0 0,0l1 0 0 0 0 0c0,0 0,-1 0,0 1,0 1,0 0,0l0 0 0 1 1 0c0,0 0,0 0,0l0 0c0,-1 0,-1 -1,-2 0,0 -1,0 -1,1zm3 -1c0,-1 0,-1 -1,-1 0,0 0,0 0,0 0,-1 -1,0 -1,0l0 0c0,0 0,0 0,0l0 1 1 -1 0 0c0,0 0,0 0,0 0,0 0,0 0,0l0 1 0 0 0 0c0,0 0,0 0,0l1 0c0,0 0,0 0,0l-1 0 0 0 1 0c0,0 0,0 0,0l0 0c0,0 0,0 0,0zm1 -1l-1 0 0 0 1 -1c0,0 0,0 0,0l0 0c0,0 -1,0 -1,0l0 0 0 0 0 0 0 -1 -1 1c0,0 0,0 0,0l1 1c0,0 0,0 0,0l1 0 0 0zm2 -1l-2 -1c0,0 0,0 0,0l0 1c0,0 0,0 0,0l1 0c0,0 0,0 0,0l0 -1 0 1c0,0 0,0 0,0l1 0c0,0 0,0 0,0zm0 -2l-1 0c0,0 0,0 0,0l1 1 0 0 0 -1c0,0 1,0 1,1 0,0 -1,0 -1,0l0 0 0 0 0 1c0,0 0,0 0,0l0 0c1,-1 1,-1 1,-2 0,0 -1,0 -1,0zm3 -1l0 0c0,0 0,0 0,0l0 2 -1 -2c0,0 0,0 0,0l0 0c0,0 0,0 0,0l0 2 0 0 0 -1 1 1c0,0 0,0 0,0l0 0c0,0 0,0 0,0l0 -2c0,0 0,0 0,0zm2 2c0,-1 0,-1 -1,-1 0,0 0,0 0,0 0,1 0,1 0,1 0,0 1,0 1,0zm0 0c0,-1 0,-1 0,-1 -1,0 -1,0 -1,0 -1,1 0,1 0,1 1,0 1,0 1,0zm0 0c0,0 0,0 -1,0 0,0 0,0 0,-1 0,0 0,0 1,0 0,0 0,0 0,1zm2 0l0 0c0,0 0,0 0,0l-1 1c0,0 0,0 0,0 0,0 0,-1 0,-1l0 0 0 -1 0 1c-1,1 0,1 0,1 0,0 1,0 1,0l0 -1c0,0 0,0 0,0zm2 1l0 0c0,0 0,0 0,0l0 0c-1,0 -1,-1 -2,0 0,0 0,1 1,1l0 0c0,0 0,0 0,0l0 0 0 0 1 0 -1 -1 0 0 0 0 0 1 0 0 0 0 0 0c-1,0 -1,-1 0,-1 0,0 0,0 0,0l0 0 1 0zm0 1l0 0 1 0c0,0 0,0 0,0l-1 0c0,0 0,0 0,0l0 0 0 0zm1 1l0 -1c0,0 0,0 0,0l-1 1 0 0 0 0 0 -1 0 0 0 0 -1 1c0,0 0,0 0,0l0 0c0,0 0,0 0,0l0 0 1 0 0 0c0,0 0,0 0,0l0 1c0,0 0,0 0,0l1 -1c0,0 0,0 0,0zm0 1l-1 0c0,0 0,0 0,0l0 1c0,0 0,0 0,0l1 -1 0 0zm0 -1l1 1c0,0 0,0 0,0l0 0c0,0 0,0 0,0l0 -1c0,0 0,0 0,0l-1 0c0,0 0,0 0,0z"/>
    </g>
   </g>
   <path class="fil0" d="M71 115c1,1 2,1 3,2 2,0 3,1 4,1 2,1 5,2 7,3 3,1 5,2 7,2 3,1 6,2 9,2 0,0 0,0 1,-1l2 -5c0,-1 0,-1 0,-1 1,-1 1,-1 1,-1 2,-4 1,-5 2,-8 0,0 0,-1 1,-1 0,-1 0,-1 0,-1 0,-1 1,-2 1,-3 0,1 1,1 1,3 0,1 0,2 0,3 0,0 1,1 1,2 0,0 0,1 0,1 0,1 0,2 1,6 0,2 0,2 1,4 0,2 0,5 0,7 1,4 1,3 1,8 0,1 0,2 0,4 1,0 1,1 1,1l0 2c0,2 0,3 0,4 0,1 0,2 0,3 0,1 0,6 0,8 0,0 0,1 0,1 0,1 0,1 0,2 0,0 1,1 1,1 0,1 0,2 0,3 0,1 0,1 0,2 0,1 0,3 0,4 0,2 0,5 0,7 0,1 0,2 0,3 0,2 0,6 -1,9 -1,6 -2,8 -2,14 0,1 0,2 0,3l1 5c0,1 -1,3 -1,4 -1,1 -1,1 -1,2 0,1 0,1 0,2 -1,2 -2,6 -1,8 0,2 0,3 0,5 1,3 0,4 0,7 0,2 0,4 0,6 -1,1 -1,1 -1,2 0,0 0,1 0,1 0,1 0,1 0,2l0 0c0,0 2,1 7,2 6,1 22,3 28,4 6,0 19,1 24,1 6,0 24,-1 33,-2 9,-2 20,-3 23,-5 0,-1 0,0 0,-4 -1,-2 -1,-4 -1,-6 -1,-2 -1,-9 -1,-10 0,-1 0,-3 0,-4 0,-2 0,-2 0,-4 0,-1 0,-2 0,-2l0 -4c0,-7 -1,-13 -3,-19 -2,-5 0,-6 0,-11 0,-1 0,-2 0,-3 -1,-3 -1,-4 -1,-7 0,-3 0,-1 0,-3 0,-3 -1,-2 0,-4 0,-1 0,-1 0,-1 1,-5 1,-7 1,-12l0 -2c0,-1 0,-2 0,-3 0,-1 0,-4 0,-4 0,-2 0,-4 0,-6 0,-1 0,-2 0,-3 0,0 0,-1 1,-1 0,-4 0,-5 0,-8 0,-1 0,-2 0,-3 1,-2 2,-9 2,-12 0,-2 1,-3 1,-4 1,-1 1,-2 1,-3 0,-2 1,-2 1,-5 0,0 0,1 1,1 0,2 0,4 1,6 0,0 0,1 1,1 0,3 0,2 1,4 0,1 1,0 2,3 0,1 1,2 1,3 0,1 1,1 1,2 0,0 1,0 1,0 6,0 28,-8 28,-10 0,-1 -2,-6 -2,-7 0,-1 0,-1 -1,-3 0,-1 0,-1 0,-2l-1 -2c-1,-2 -2,-4 -3,-7 0,0 0,-1 0,-2 -1,-4 -3,-7 -4,-11 0,-4 -1,-8 -3,-12 -2,-5 -4,-10 -8,-14l-1 -1c-1,-1 -1,-2 -2,-3 -1,0 -1,0 -1,0l-2 -2c-2,-2 -5,-3 -8,-5l-13 -6c-1,0 -2,0 -2,0l-4 -2c-2,-1 -8,-4 -10,-6 -3,-2 -2,0 -5,-3 -4,-3 -2,-4 -9,-4 -3,0 -5,1 -8,1l-18 0c-3,0 -10,-1 -13,0 0,0 -1,0 -1,1 0,1 -1,1 -1,1 -1,1 -2,2 -3,3 -1,0 -2,0 -2,0 -1,1 -1,1 -2,2 0,0 0,0 0,0 0,0 0,0 0,0 -1,1 -7,4 -8,4 0,0 -1,0 -1,1 -2,1 -4,2 -6,3l-9 3c-4,2 -8,4 -11,6l-3 3c-5,4 -9,10 -11,17 -3,5 -4,10 -5,15 -1,3 -2,6 -3,9 0,0 0,0 0,1l-3 8c-1,1 -2,5 -2,6 0,1 0,2 -1,2l-1 4c0,1 -1,1 -1,2z"/>
   <path class="fil47" d="M140 29l0 0c0,0 -1,0 -1,2 0,1 1,5 2,7 1,2 4,6 9,10 4,4 8,7 11,9 4,2 7,4 7,4 0,0 7,-4 12,-9 6,-4 12,-9 14,-15 3,-5 2,-7 1,-8l0 0c0,0 -1,-1 -2,-2 -4,-3 -2,-4 -9,-4 -3,0 -5,1 -8,1l-18 0c-3,0 -10,-1 -13,0 0,0 -1,0 -1,1 0,1 -1,1 -1,1 -1,1 -2,2 -3,3z"/>
   <path class="fil48" d="M145 29c0,0 1,2 2,4 1,1 4,5 9,10 5,4 9,8 12,9 0,0 4,-3 10,-8 5,-5 8,-7 9,-9 2,-2 3,-5 3,-6 0,0 -7,1 -9,1 -2,1 -12,1 -17,1 -5,0 -15,-1 -19,-2z"/>
   <path class="fil2" d="M102 47c0,1 1,4 1,5 0,2 -1,2 0,2 0,1 0,1 1,2 0,2 0,2 0,3 0,0 1,2 1,3 0,1 0,2 0,3 0,0 -1,1 -1,1 1,1 1,2 2,2 0,1 0,7 0,8 0,1 0,10 0,12 1,2 2,7 2,8 0,0 0,1 0,2 0,1 0,2 1,2 0,0 0,0 0,0 0,1 0,1 0,1 0,0 1,3 1,3 0,0 0,0 -1,0l0 0c0,1 -1,2 -1,3 0,0 0,0 0,1 -1,0 -1,1 -1,1 -1,3 0,4 -2,8 0,0 0,0 -1,1 0,0 0,0 0,1l-2 5c-1,1 -1,1 -1,1 -3,0 -6,-1 -9,-2 -2,0 -4,-1 -7,-2 -2,-1 -5,-2 -7,-3 -1,0 -2,-1 -4,-1 -1,-1 -2,-1 -3,-2 0,-1 1,-1 1,-2l1 -4c1,0 1,-1 1,-2 0,-1 1,-5 2,-6l3 -8c0,-1 0,-1 0,-1 1,-3 2,-6 3,-9 1,-5 2,-10 5,-15 2,-7 6,-13 11,-17l3 -3c1,0 1,0 1,-1z"/>
   <g style="clip-path:url(#id3)">
    <g>
     <g>
      <g>
       <rect class="fil49" x="65" y="-9" width="3.56818" height="190.386"/>
       <rect class="fil50" x="58" y="-9" width="3.56818" height="190.386"/>
       <rect class="fil51" x="69" y="-9" width="3.56818" height="190.386"/>
       <rect class="fil52" x="55" y="-9" width="3.56818" height="190.386"/>
       <rect class="fil53" x="62" y="-9" width="3.56818" height="190.386"/>
       <rect class="fil54" x="73" y="-9" width="3.56818" height="190.386"/>
       <rect class="fil55" x="87" y="-9" width="3.56818" height="190.386"/>
       <rect class="fil56" x="76" y="-9" width="3.56818" height="190.386"/>
       <rect class="fil57" x="83" y="-9" width="3.56818" height="190.386"/>
       <rect class="fil58" x="80" y="-9" width="3.56818" height="190.386"/>
      </g>
      <g>
       <rect class="fil59" x="137" y="-9" width="3.56818" height="190.386"/>
       <rect class="fil60" x="130" y="-9" width="3.56818" height="190.386"/>
       <rect class="fil61" x="140" y="-9" width="3.56818" height="190.386"/>
       <rect class="fil62" x="126" y="-9" width="3.56818" height="190.386"/>
       <rect class="fil63" x="133" y="-9" width="3.56818" height="190.386"/>
       <rect class="fil64" x="144" y="-9" width="3.56818" height="190.386"/>
       <rect class="fil65" x="158" y="-9" width="3.56818" height="190.386"/>
       <rect class="fil66" x="148" y="-9" width="3.56818" height="190.386"/>
       <rect class="fil67" x="155" y="-9" width="3.56818" height="190.386"/>
       <rect class="fil68" x="151" y="-9" width="3.56818" height="190.386"/>
      </g>
      <g>
       <rect class="fil69" x="30" y="-9" width="3.56818" height="190.386"/>
       <rect class="fil70" x="23" y="-9" width="3.56818" height="190.386"/>
       <rect class="fil71" x="33" y="-9" width="3.56818" height="190.386"/>
       <rect class="fil72" x="19" y="-9" width="3.56818" height="190.386"/>
       <rect class="fil73" x="26" y="-9" width="3.56818" height="190.386"/>
       <rect class="fil74" x="37" y="-9" width="3.56818" height="190.386"/>
       <rect class="fil75" x="51" y="-9" width="3.56818" height="190.386"/>
       <rect class="fil76" x="41" y="-9" width="3.56818" height="190.386"/>
       <rect class="fil77" x="48" y="-9" width="3.56818" height="190.386"/>
       <rect class="fil78" x="44" y="-9" width="3.56818" height="190.386"/>
      </g>
      <g>
       <rect class="fil79" x="101" y="-9" width="3.56818" height="190.386"/>
       <rect class="fil80" x="94" y="-9" width="3.56818" height="190.386"/>
       <rect class="fil81" x="105" y="-9" width="3.56818" height="190.386"/>
       <rect class="fil82" x="90" y="-9" width="3.56818" height="190.386"/>
       <rect class="fil83" x="98" y="-9" width="3.56818" height="190.386"/>
       <rect class="fil84" x="108" y="-9" width="3.56818" height="190.386"/>
       <rect class="fil85" x="123" y="-9" width="3.56818" height="190.386"/>
       <rect class="fil86" x="112" y="-9" width="3.56818" height="190.386"/>
       <rect class="fil87" x="119" y="-9" width="3.56818" height="190.386"/>
       <rect class="fil88" x="115" y="-9" width="3.56818" height="190.386"/>
      </g>
     </g>
    </g>
   </g>
   <path class="fil0" d="M102 47c0,1 1,4 1,5 0,2 -1,2 0,2 0,1 0,1 1,2 0,2 0,2 0,3 0,0 1,2 1,3 0,1 0,2 0,3 0,0 -1,1 -1,1 1,1 1,2 2,2 0,1 0,7 0,8 0,1 0,10 0,12 1,2 2,7 2,8 0,0 0,1 0,2 0,1 0,2 1,2 0,0 0,0 0,0 0,1 0,1 0,1 0,0 1,3 1,3 0,0 0,0 -1,0l0 0c0,1 -1,2 -1,3 0,0 0,0 0,1 -1,0 -1,1 -1,1 -1,3 0,4 -2,8 0,0 0,0 -1,1 0,0 0,0 0,1l-2 5c-1,1 -1,1 -1,1 -3,0 -6,-1 -9,-2 -2,0 -4,-1 -7,-2 -2,-1 -5,-2 -7,-3 -1,0 -2,-1 -4,-1 -1,-1 -2,-1 -3,-2 0,-1 1,-1 1,-2l1 -4c1,0 1,-1 1,-2 0,-1 1,-5 2,-6l3 -8c0,-1 0,-1 0,-1 1,-3 2,-6 3,-9 1,-5 2,-10 5,-15 2,-7 6,-13 11,-17l3 -3c1,0 1,0 1,-1z"/>
   <path class="fil0" d="M74 107c0,0 3,2 5,3 1,0 5,2 9,3 3,1 14,5 16,5 0,0 0,0 0,1l-2 5c-1,1 -1,1 -1,1 -3,0 -6,-1 -9,-2 -2,0 -4,-1 -7,-2 -2,-1 -5,-2 -7,-3 -1,0 -2,-1 -4,-1 -1,-1 -2,-1 -3,-2 0,-1 1,-1 1,-2l1 -4c1,0 1,-1 1,-2z"/>
   <path class="fil2" d="M233 48c0,0 0,1 0,3 0,1 -1,3 0,4 0,0 0,0 0,0 0,0 0,1 -1,1 0,1 0,1 0,1 0,1 -1,4 -1,4 0,0 0,0 1,1 0,0 0,0 -1,1 0,0 0,1 0,1 0,0 0,3 -1,4 0,0 1,1 1,2 0,0 0,1 -1,1 0,1 0,3 0,4 0,1 0,4 0,5 0,0 -1,6 -1,9 -1,4 -2,7 -2,8 0,1 -1,2 -1,3 0,0 0,1 0,1 -1,1 -1,0 -1,1 0,0 0,1 0,2 0,0 1,1 1,1 0,0 0,1 1,1 0,2 0,4 1,6 0,0 0,1 1,1 0,3 0,2 1,4 0,1 1,0 2,3 0,1 1,2 1,3 0,1 1,1 1,2 0,0 1,0 1,0 6,0 28,-8 28,-10 0,-1 -2,-6 -2,-7 0,-1 0,-1 -1,-3 0,-1 0,-1 0,-2l-1 -2c-1,-2 -2,-4 -3,-7 0,0 0,-1 0,-2 -1,-4 -3,-7 -4,-11 0,-4 -1,-8 -3,-12 -2,-5 -4,-10 -8,-14l-1 -1c-1,-1 -1,-2 -2,-3 -1,0 -1,0 -1,0l-2 -2c-1,0 -1,-1 -2,-1z"/>
   <g style="clip-path:url(#id4)">
    <g>
     <g>
      <g>
       <rect class="fil89" x="219" y="-9" width="3.56818" height="190.386"/>
       <rect class="fil90" x="212" y="-9" width="3.56818" height="190.386"/>
       <rect class="fil91" x="223" y="-9" width="3.56818" height="190.386"/>
       <rect class="fil92" x="209" y="-9" width="3.56818" height="190.386"/>
       <rect class="fil93" x="216" y="-9" width="3.56818" height="190.386"/>
       <rect class="fil94" x="226" y="-9" width="3.56818" height="190.386"/>
       <rect class="fil95" x="241" y="-9" width="3.56818" height="190.386"/>
       <rect class="fil96" x="230" y="-9" width="3.56818" height="190.386"/>
       <rect class="fil97" x="237" y="-9" width="3.56818" height="190.386"/>
       <rect class="fil98" x="234" y="-9" width="3.56818" height="190.386"/>
      </g>
      <g>
       <rect class="fil99" x="291" y="-9" width="3.56818" height="190.386"/>
       <rect class="fil100" x="284" y="-9" width="3.56818" height="190.386"/>
       <rect class="fil101" x="294" y="-9" width="3.56818" height="190.386"/>
       <rect class="fil102" x="280" y="-9" width="3.56818" height="190.386"/>
       <rect class="fil103" x="287" y="-9" width="3.56818" height="190.386"/>
       <rect class="fil104" x="298" y="-9" width="3.56818" height="190.386"/>
       <rect class="fil105" x="312" y="-9" width="3.56818" height="190.386"/>
       <rect class="fil106" x="301" y="-9" width="3.56818" height="190.386"/>
       <rect class="fil107" x="308" y="-9" width="3.56818" height="190.386"/>
       <rect class="fil108" x="305" y="-9" width="3.56818" height="190.386"/>
      </g>
      <g>
       <rect class="fil109" x="184" y="-9" width="3.56818" height="190.386"/>
       <rect class="fil110" x="176" y="-9" width="3.56818" height="190.386"/>
       <rect class="fil111" x="187" y="-9" width="3.56818" height="190.386"/>
       <rect class="fil112" x="173" y="-9" width="3.56818" height="190.386"/>
       <rect class="fil113" x="180" y="-9" width="3.56818" height="190.386"/>
       <rect class="fil114" x="191" y="-9" width="3.56818" height="190.386"/>
       <rect class="fil115" x="205" y="-9" width="3.56818" height="190.386"/>
       <rect class="fil116" x="194" y="-9" width="3.56818" height="190.386"/>
       <rect class="fil117" x="201" y="-9" width="3.56818" height="190.386"/>
       <rect class="fil118" x="198" y="-9" width="3.56818" height="190.386"/>
      </g>
      <g>
       <rect class="fil119" x="255" y="-9" width="3.56818" height="190.386"/>
       <rect class="fil120" x="248" y="-9" width="3.56818" height="190.386"/>
       <rect class="fil121" x="259" y="-9" width="3.56818" height="190.386"/>
       <rect class="fil122" x="244" y="-9" width="3.56818" height="190.386"/>
       <rect class="fil123" x="251" y="-9" width="3.56818" height="190.386"/>
       <rect class="fil124" x="262" y="-9" width="3.56818" height="190.386"/>
       <rect class="fil125" x="276" y="-9" width="3.56818" height="190.386"/>
       <rect class="fil126" x="266" y="-9" width="3.56818" height="190.386"/>
       <rect class="fil127" x="273" y="-9" width="3.56818" height="190.386"/>
       <rect class="fil128" x="269" y="-9" width="3.56818" height="190.386"/>
      </g>
     </g>
    </g>
   </g>
   <path class="fil0" d="M233 48c0,0 0,1 0,3 0,1 -1,3 0,4 0,0 0,0 0,0 0,0 0,1 -1,1 0,1 0,1 0,1 0,1 -1,4 -1,4 0,0 0,0 1,1 0,0 0,0 -1,1 0,0 0,1 0,1 0,0 0,3 -1,4 0,0 1,1 1,2 0,0 0,1 -1,1 0,1 0,3 0,4 0,1 0,4 0,5 0,0 -1,6 -1,9 -1,4 -2,7 -2,8 0,1 -1,2 -1,3 0,0 0,1 0,1 -1,1 -1,0 -1,1 0,0 0,1 0,2 0,0 1,1 1,1 0,0 0,1 1,1 0,2 0,4 1,6 0,0 0,1 1,1 0,3 0,2 1,4 0,1 1,0 2,3 0,1 1,2 1,3 0,1 1,1 1,2 0,0 1,0 1,0 6,0 28,-8 28,-10 0,-1 -2,-6 -2,-7 0,-1 0,-1 -1,-3 0,-1 0,-1 0,-2l-1 -2c-1,-2 -2,-4 -3,-7 0,0 0,-1 0,-2 -1,-4 -3,-7 -4,-11 0,-4 -1,-8 -3,-12 -2,-5 -4,-10 -8,-14l-1 -1c-1,-1 -1,-2 -2,-3 -1,0 -1,0 -1,0l-2 -2c-1,0 -1,-1 -2,-1z"/>
   <path class="fil0" d="M231 118l0 0c0,0 2,0 5,0 3,-1 13,-5 13,-5 0,0 11,-4 12,-6 0,0 0,1 0,1 0,1 2,6 2,7 0,2 -22,10 -28,10 0,0 -1,0 -1,0 0,-1 -1,-1 -1,-2 0,-1 -1,-2 -1,-3 -1,-1 -1,-2 -1,-2z"/>
   <path class="fil1" d="M232 120c6,-1 22,-6 29,-11 1,1 1,2 2,3 -9,5 -24,10 -30,11 0,-1 -1,-2 -1,-3 0,0 0,0 0,0z"/>
   <path class="fil1" d="M73 109c5,3 17,8 30,11l-1 3c-13,-3 -25,-8 -30,-10l1 -4z"/>
   <g style="clip-path:url(#id5)">
    <image id="SHADOW" x="71" y="23" width="192" height="345" xlink:href="a2_Images\a2_ImgID1.png"/>
   </g>
  </g>
  <rect class="fil0" width="335" height="283"/>
 </g>
</svg>
