<?xml version="1.0" encoding="UTF-8"?>
<!DOCTYPE svg PUBLIC "-//W3C//DTD SVG 1.1//EN" "http://www.w3.org/Graphics/SVG/1.1/DTD/svg11.dtd">
<!-- Creator: CorelDRAW X8 -->
<svg xmlns="http://www.w3.org/2000/svg" xml:space="preserve" width="1.37795in" height="0.377197in" version="1.1" style="shape-rendering:geometricPrecision; text-rendering:geometricPrecision; image-rendering:optimizeQuality; fill-rule:evenodd; clip-rule:evenodd"
viewBox="0 0 362 99"
 xmlns:xlink="http://www.w3.org/1999/xlink">
 <defs>
  <style type="text/css">
   <![CDATA[
    .fil0 {fill:#B91C1C}
    .fil1 {fill:black;fill-rule:nonzero}
    .fil2 {fill:#B91C1C;fill-rule:nonzero}
   ]]>
  </style>
 </defs>
 <g id="Layer_x0020_1">
  <metadata id="CorelCorpID_0Corel-Layer"/>
  <g id="_2707862202528">
   <path class="fil0" d="M0 0c0,0 10,27 23,30 13,2 17,-11 19,-12l0 0c0,0 0,0 1,0 0,0 0,0 0,0l0 0c2,1 7,14 19,12 13,-3 23,-30 23,-30l0 53 -25 19 -15 25 5 -33c0,0 4,1 16,-6 11,-8 11,-23 11,-23l-34 14 0 0 0 0 -1 0 0 0 -34 -14c0,0 0,15 12,23 11,7 15,6 15,6l5 33 -14 -25 -26 -19 0 -53zm1 60l22 16 12 21 -35 -28 1 -9zm84 0l-22 16 -12 21 34 -28 0 -9z"/>
   <path class="fil0" d="M42 89l-5 -28c0,0 -3,1 -12,-5 -9,-6 -13,-16 -13,-16l31 13 0 0 0 0 0 0 0 0 31 -13c0,0 -4,10 -13,16 -9,6 -12,5 -12,5l-7 28z"/>
  </g>
  <path class="fil1" d="M134 6l-11 0c0,0 -1,1 -1,1l0 23 12 0 0 -13c14,-1 25,5 25,19 0,18 -17,19 -25,18l0 -13 -12 0 0 24c0,0 1,0 1,0l11 0c16,0 37,-4 37,-29 0,-26 -22,-30 -37,-30zm83 58c-4,-8 -8,-16 -12,-24 6,-2 12,-7 12,-16 0,-17 -18,-18 -22,-18l-21 0c0,0 0,1 0,1l0 10 12 0 9 0c2,0 10,0 10,7 0,6 -7,7 -10,7l-9 0 -12 0 0 34c0,0 0,0 0,0l11 0c0,0 1,0 1,0l0 -24 7 0 11 24c0,0 1,0 1,0l12 0c0,0 1,0 0,-1zm33 -10l-18 0 0 -13 25 0c1,0 1,0 1,-1l0 -9c0,0 0,-1 -1,-1l-25 0 0 -13 18 0 0 -11 -29 0c-1,0 -1,1 -1,1l0 58c0,0 0,0 1,0l29 0 0 -11zm60 10l-24 -57c0,-1 -1,-1 -2,0l-24 57c0,1 0,1 1,1l11 0c0,0 1,0 1,0l12 -33 13 33c0,0 0,0 0,0l12 0c0,0 1,0 0,-1zm14 -58l-10 0c-1,0 -1,1 -1,1l0 23 12 0 0 -13c14,-1 24,5 24,19 0,18 -16,19 -24,18l0 -13 -12 0 0 24c0,0 0,0 1,0l10 0c16,0 38,-4 38,-29 0,-26 -22,-30 -38,-30z"/>
  <path class="fil2" d="M147 76l-4 0c0,0 -1,0 -1,0l0 15 -11 -15c0,0 0,0 0,0l-4 0c-1,0 -1,0 -1,0l0 18 5 0 0 -10 11 15c1,0 1,0 1,0l4 0c0,0 0,0 0,0l0 -23c0,0 0,0 0,0zm38 12c0,-2 -1,-3 -3,-3 -1,0 -2,1 -2,3 0,1 1,2 2,2 2,0 3,-1 3,-2zm9 0c0,-6 -4,-12 -12,-12 -8,0 -12,6 -12,12 0,5 4,11 12,11 8,0 12,-6 12,-11zm-4 0c0,3 -3,7 -8,7 -5,0 -7,-4 -7,-7 0,-4 2,-8 7,-8 5,0 8,4 8,8zm46 -12l-4 0c-1,0 -1,0 -1,0l0 15c0,3 -2,4 -4,4 -3,0 -5,-1 -5,-4l0 -11 -5 0 0 11c0,5 5,8 10,8 5,0 9,-3 9,-8l0 -15c0,0 0,0 0,0zm42 4l0 -4c0,0 0,0 0,0l-4 0c-7,0 -15,2 -15,12 0,10 8,11 15,11l4 0c0,0 0,0 0,0l0 -9 0 -1 0 -4 -5 0 -5 0 0 4 5 0 0 1 0 0 0 5c-5,0 -9,-2 -9,-7 0,-7 6,-8 9,-8l0 0 5 0zm28 6l0 -1 0 -9c0,0 -1,0 -1,0l-4 0c0,0 0,0 0,0l0 10 5 0zm13 -10l-4 0c0,0 0,0 0,0l0 9 0 5 0 0 -9 0 0 0 -5 0 0 9c0,0 0,0 0,0l4 0c0,0 1,0 1,0l0 -4 9 0 0 4c0,0 0,0 0,0l4 0c1,0 1,0 1,0l0 -23c0,0 0,0 -1,0zm29 8l0 15c0,0 0,0 0,0l4 0c0,0 1,0 1,0l0 -15 -5 0zm-5 -4l14 0c1,0 1,0 1,0l0 -4c0,0 0,0 -1,0l-14 0c0,0 0,0 0,0l0 4c0,0 0,0 0,0z"/>
 </g>
</svg>
