<?xml version="1.0" encoding="UTF-8"?>
<!DOCTYPE svg PUBLIC "-//W3C//DTD SVG 1.1//EN" "http://www.w3.org/Graphics/SVG/1.1/DTD/svg11.dtd">
<!-- Creator: CorelDRAW X8 -->
<svg xmlns="http://www.w3.org/2000/svg" xml:space="preserve" width="1.88405in" height="0.515732in" version="1.1" style="shape-rendering:geometricPrecision; text-rendering:geometricPrecision; image-rendering:optimizeQuality; fill-rule:evenodd; clip-rule:evenodd"
viewBox="0 0 748 205"
 xmlns:xlink="http://www.w3.org/1999/xlink">
 <defs>
  <style type="text/css">
   <![CDATA[
    .fil0 {fill:#B91C1C}
    .fil1 {fill:#B91C1C;fill-rule:nonzero}
   ]]>
  </style>
 </defs>
 <g id="Layer_x0020_1">
  <metadata id="CorelCorpID_0Corel-Layer"/>
  <g id="_2707472817008">
   <path class="fil0" d="M0 0c0,0 21,57 47,62 27,5 36,-23 40,-25l0 -1c0,0 1,1 1,1 1,0 1,-1 1,-1l0 1c5,2 14,30 40,25 26,-5 47,-62 47,-62l1 110 -54 39 -30 53 10 -69c0,0 9,2 33,-13 24,-16 24,-47 24,-47l-71 28 0 1 -1 0 0 0 0 -1 -72 -28c0,0 1,31 25,47 23,15 32,13 32,13l10 69 -30 -53 -53 -39 0 -110zm1 125l46 32 25 44 -72 -58 1 -18zm174 0l-45 32 -25 44 71 -58 -1 -18z"/>
   <path class="fil0" d="M88 183l-11 -56c0,0 -6,2 -25,-10 -18,-13 -28,-35 -28,-35l65 27 0 0 0 0 1 0 0 0 62 -25c0,0 -7,20 -26,33 -18,12 -25,10 -25,10l-13 56z"/>
  </g>
  <g id="_2707472817264">
   <path class="fil1" d="M276 13l-21 0c-1,0 -2,1 -2,2l0 47 25 0 0 -27c29,-1 50,10 50,39 0,38 -34,39 -50,38l0 -26 -25 0 0 47c0,1 1,2 2,2l21 0c33,0 78,-9 78,-61 0,-54 -45,-61 -78,-61zm174 120c-9,-17 -18,-34 -26,-51 13,-4 25,-14 25,-33 0,-35 -38,-36 -45,-36l-43 0c-1,0 -2,1 -2,2l0 20 25 0 20 0c4,0 19,1 19,14 0,14 -14,14 -19,14l-20 0 -25 0 0 70c0,1 1,2 2,2l22 0c1,0 1,-1 1,-2l0 -47 15 0 24 48c0,0 1,1 1,1l24 0c2,0 2,-1 2,-2zm68 -21l-38 0 0 -27 52 0c1,0 2,-1 2,-2l0 -19c0,-1 -1,-1 -2,-1l-52 0 0 -28 38 0 0 -22 -62 0c-1,0 -1,1 -1,2l0 118c0,1 0,2 1,2l62 0 0 -23zm124 21l-50 -119c-1,-1 -3,-1 -4,0l-50 119c-1,1 0,2 2,2l22 0c1,0 2,0 2,-1l26 -68 26 68c0,1 1,1 2,1l22 0c2,0 2,-1 2,-2zm29 -120l-22 0c-1,0 -2,1 -2,2l0 47 26 0 0 -27c29,-1 50,10 50,39 0,38 -34,39 -50,38l0 -26 -26 0 0 47c0,1 1,2 2,2l22 0c33,0 77,-9 77,-61 0,-54 -45,-61 -77,-61z"/>
   <path class="fil1" d="M304 158l-8 0c-1,0 -1,0 -1,0l0 31 -24 -31c0,0 0,0 -1,0l-8 0c-1,0 -1,0 -1,0l0 36 10 0 0 -20 24 31c0,0 0,0 0,0l9 0c0,0 1,0 1,-1l0 -46c0,0 -1,0 -1,0zm78 23c0,-2 -2,-4 -5,-4 -3,0 -5,2 -5,4 0,3 2,5 5,5 3,0 5,-2 5,-5zm20 0c0,-12 -8,-23 -25,-23 -17,0 -25,11 -25,23 0,12 8,24 25,24 17,0 25,-12 25,-24zm-10 0c0,8 -5,16 -15,16 -10,0 -15,-8 -15,-16 0,-7 5,-15 15,-15 10,0 15,8 15,15zm96 -23l-9 0c0,0 0,0 0,0l0 31c0,5 -5,7 -10,7 -5,0 -9,-2 -10,-7l0 -23 -9 0 0 23c0,10 8,16 19,16 11,0 19,-6 19,-16l0 -31c0,0 0,0 0,0zm87 8l0 -8c0,0 0,0 -1,0l-8 0c-13,0 -30,3 -30,23 0,21 17,24 30,24l8 0c1,0 1,0 1,-1l0 -18 0 -2 0 -9 -10 0 -10 0 0 9 10 0 0 2 0 0 0 10c-11,1 -19,-4 -19,-15 0,-14 13,-15 19,-15l0 0 10 0zm57 12l0 -1 0 -19c0,0 0,0 0,0l-9 0c0,0 -1,0 -1,0l0 20 10 0zm29 -20l-8 0c-1,0 -1,0 -1,0l0 19 0 9 0 1 -20 0 0 0 -10 0 0 17c0,1 1,1 1,1l9 0c0,0 0,0 0,-1l0 -8 20 0 0 8c0,1 0,1 1,1l8 0c0,0 1,0 1,-1l0 -46c0,0 -1,0 -1,0zm59 17l0 29c0,1 0,1 0,1l9 0c0,0 0,0 0,-1l0 -29 -9 0zm-10 -9l29 0c1,0 1,-1 1,-1l0 -7c0,0 0,0 -1,0l-29 0c-1,0 -1,0 -1,0l0 7c0,0 0,1 1,1z"/>
  </g>
 </g>
</svg>
